<?xml version="1.0" encoding="UTF-8" standalone="no"?>
<!DOCTYPE svg PUBLIC "-//W3C//DTD SVG 1.1//EN"
 "http://www.w3.org/Graphics/SVG/1.1/DTD/svg11.dtd">
<!-- Generated by graphviz version 2.43.0 (0)
 -->
<!-- Title: Classes Pages: 1 -->
<svg width="3611pt" height="183pt"
 viewBox="0.00 0.00 3610.50 183.00" xmlns="http://www.w3.org/2000/svg" xmlns:xlink="http://www.w3.org/1999/xlink">
<g id="graph0" class="graph" transform="scale(1 1) rotate(0) translate(4 179)">
<title>Classes</title>
<polygon fill="white" stroke="transparent" points="-4,4 -4,-179 3606.5,-179 3606.5,4 -4,4"/>
<!-- PerformanceEvaluator -->
<g id="node1" class="node">
<title>PerformanceEvaluator</title>
<polygon fill="lightblue" stroke="black" points="0,-57 0,-118 210,-118 210,-57 0,-57"/>
<text text-anchor="middle" x="105" y="-102.8" font-family="Times,serif" font-size="14.00">PerformanceEvaluator</text>
<polyline fill="none" stroke="black" points="0,-95 210,-95 "/>
<text text-anchor="start" x="8" y="-79.8" font-family="Times,serif" font-size="14.00">run_monte_carlo_reference</text>
<text text-anchor="start" x="8" y="-64.8" font-family="Times,serif" font-size="14.00">compare_methods</text>
</g>
<!-- AdvancedAnalysis -->
<g id="node2" class="node">
<title>AdvancedAnalysis</title>
<polygon fill="lightblue" stroke="black" points="228.5,-57 228.5,-118 457.5,-118 457.5,-57 228.5,-57"/>
<text text-anchor="middle" x="343" y="-102.8" font-family="Times,serif" font-size="14.00">AdvancedAnalysis</text>
<polyline fill="none" stroke="black" points="228.5,-95 457.5,-95 "/>
<text text-anchor="start" x="236.5" y="-79.8" font-family="Times,serif" font-size="14.00">analyze_component_evolution</text>
<text text-anchor="start" x="236.5" y="-64.8" font-family="Times,serif" font-size="14.00">analyze_sample_distribution</text>
</g>
<!-- vMFNMParameters -->
<g id="node3" class="node">
<title>vMFNMParameters</title>
<polygon fill="lightblue" stroke="black" points="476,-57 476,-118 634,-118 634,-57 476,-57"/>
<text text-anchor="middle" x="555" y="-102.8" font-family="Times,serif" font-size="14.00">vMFNMParameters</text>
<polyline fill="none" stroke="black" points="476,-95 634,-95 "/>
<text text-anchor="start" x="484" y="-79.8" font-family="Times,serif" font-size="14.00">K</text>
<text text-anchor="start" x="484" y="-64.8" font-family="Times,serif" font-size="14.00">d</text>
</g>
<!-- SafeICE -->
<g id="node4" class="node">
<title>SafeICE</title>
<polygon fill="lightblue" stroke="black" points="652,-15.5 652,-159.5 756,-159.5 756,-15.5 652,-15.5"/>
<text text-anchor="middle" x="704" y="-144.3" font-family="Times,serif" font-size="14.00">SafeICE</text>
<polyline fill="none" stroke="black" points="652,-136.5 756,-136.5 "/>
<text text-anchor="start" x="660" y="-121.3" font-family="Times,serif" font-size="14.00">g</text>
<text text-anchor="start" x="660" y="-106.3" font-family="Times,serif" font-size="14.00">d</text>
<text text-anchor="start" x="660" y="-91.3" font-family="Times,serif" font-size="14.00">K0</text>
<text text-anchor="start" x="660" y="-76.3" font-family="Times,serif" font-size="14.00">delta_target</text>
<text text-anchor="start" x="660" y="-61.3" font-family="Times,serif" font-size="14.00">delta_star</text>
<polyline fill="none" stroke="black" points="652,-53.5 756,-53.5 "/>
<text text-anchor="start" x="660" y="-38.3" font-family="Times,serif" font-size="14.00">run</text>
<text text-anchor="start" x="660" y="-23.3" font-family="Times,serif" font-size="14.00">cv_objective</text>
</g>
<!-- vMFNMDistribution -->
<g id="node5" class="node">
<title>vMFNMDistribution</title>
<polygon fill="lightblue" stroke="black" points="774.5,-38 774.5,-137 935.5,-137 935.5,-38 774.5,-38"/>
<text text-anchor="middle" x="855" y="-121.8" font-family="Times,serif" font-size="14.00">vMFNMDistribution</text>
<polyline fill="none" stroke="black" points="774.5,-114 935.5,-114 "/>
<text text-anchor="start" x="782.5" y="-98.8" font-family="Times,serif" font-size="14.00">params</text>
<polyline fill="none" stroke="black" points="774.5,-91 935.5,-91 "/>
<text text-anchor="start" x="782.5" y="-75.8" font-family="Times,serif" font-size="14.00">pdf</text>
<text text-anchor="start" x="782.5" y="-60.8" font-family="Times,serif" font-size="14.00">sample</text>
<text text-anchor="start" x="782.5" y="-45.8" font-family="Times,serif" font-size="14.00">log_likelihood</text>
</g>
<!-- NakagamiDistribution -->
<g id="node6" class="node">
<title>NakagamiDistribution</title>
<polygon fill="lightblue" stroke="black" points="953.5,-49.5 953.5,-125.5 1128.5,-125.5 1128.5,-49.5 953.5,-49.5"/>
<text text-anchor="middle" x="1041" y="-110.3" font-family="Times,serif" font-size="14.00">NakagamiDistribution</text>
<polyline fill="none" stroke="black" points="953.5,-102.5 1128.5,-102.5 "/>
<text text-anchor="start" x="961.5" y="-87.3" font-family="Times,serif" font-size="14.00">pdf</text>
<text text-anchor="start" x="961.5" y="-72.3" font-family="Times,serif" font-size="14.00">sample</text>
<text text-anchor="start" x="961.5" y="-57.3" font-family="Times,serif" font-size="14.00">cdf</text>
</g>
<!-- InverseNakagamiDistribution -->
<g id="node7" class="node">
<title>InverseNakagamiDistribution</title>
<polygon fill="lightblue" stroke="black" points="1147,-57 1147,-118 1375,-118 1375,-57 1147,-57"/>
<text text-anchor="middle" x="1261" y="-102.8" font-family="Times,serif" font-size="14.00">InverseNakagamiDistribution</text>
<polyline fill="none" stroke="black" points="1147,-95 1375,-95 "/>
<text text-anchor="start" x="1155" y="-79.8" font-family="Times,serif" font-size="14.00">pdf</text>
<text text-anchor="start" x="1155" y="-64.8" font-family="Times,serif" font-size="14.00">sample</text>
</g>
<!-- VonMisesFisherSampler -->
<g id="node8" class="node">
<title>VonMisesFisherSampler</title>
<polygon fill="lightblue" stroke="black" points="1393.5,-64.5 1393.5,-110.5 1584.5,-110.5 1584.5,-64.5 1393.5,-64.5"/>
<text text-anchor="middle" x="1489" y="-95.3" font-family="Times,serif" font-size="14.00">VonMisesFisherSampler</text>
<polyline fill="none" stroke="black" points="1393.5,-87.5 1584.5,-87.5 "/>
<text text-anchor="start" x="1401.5" y="-72.3" font-family="Times,serif" font-size="14.00">sample</text>
</g>
<!-- PenalizedEMOptimizer -->
<g id="node9" class="node">
<title>PenalizedEMOptimizer</title>
<polygon fill="lightblue" stroke="black" points="1602.5,-45.5 1602.5,-129.5 1783.5,-129.5 1783.5,-45.5 1602.5,-45.5"/>
<text text-anchor="middle" x="1693" y="-114.3" font-family="Times,serif" font-size="14.00">PenalizedEMOptimizer</text>
<polyline fill="none" stroke="black" points="1602.5,-106.5 1783.5,-106.5 "/>
<text text-anchor="start" x="1610.5" y="-91.3" font-family="Times,serif" font-size="14.00">max_em_iterations</text>
<text text-anchor="start" x="1610.5" y="-76.3" font-family="Times,serif" font-size="14.00">em_tolerance</text>
<polyline fill="none" stroke="black" points="1602.5,-68.5 1783.5,-68.5 "/>
<text text-anchor="start" x="1610.5" y="-53.3" font-family="Times,serif" font-size="14.00">fit</text>
</g>
<!-- BenchmarkProblems -->
<g id="node10" class="node">
<title>BenchmarkProblems</title>
<polygon fill="lightblue" stroke="black" points="1801.5,-34.5 1801.5,-140.5 2034.5,-140.5 2034.5,-34.5 1801.5,-34.5"/>
<text text-anchor="middle" x="1918" y="-125.3" font-family="Times,serif" font-size="14.00">BenchmarkProblems</text>
<polyline fill="none" stroke="black" points="1801.5,-117.5 2034.5,-117.5 "/>
<text text-anchor="start" x="1809.5" y="-102.3" font-family="Times,serif" font-size="14.00">four_mode_series_system</text>
<text text-anchor="start" x="1809.5" y="-87.3" font-family="Times,serif" font-size="14.00">limit_state_function</text>
<text text-anchor="start" x="1809.5" y="-72.3" font-family="Times,serif" font-size="14.00">three_mode_problem</text>
<text text-anchor="start" x="1809.5" y="-57.3" font-family="Times,serif" font-size="14.00">limit_state_function</text>
<text text-anchor="start" x="1809.5" y="-42.3" font-family="Times,serif" font-size="14.00">nonlinear_oscillator_simplified</text>
</g>
<!-- HeatTransferProblem -->
<g id="node11" class="node">
<title>HeatTransferProblem</title>
<polygon fill="lightblue" stroke="black" points="2052.5,-0.5 2052.5,-174.5 2267.5,-174.5 2267.5,-0.5 2052.5,-0.5"/>
<text text-anchor="middle" x="2160" y="-159.3" font-family="Times,serif" font-size="14.00">HeatTransferProblem</text>
<polyline fill="none" stroke="black" points="2052.5,-151.5 2267.5,-151.5 "/>
<text text-anchor="start" x="2060.5" y="-136.3" font-family="Times,serif" font-size="14.00">grid_size</text>
<text text-anchor="start" x="2060.5" y="-121.3" font-family="Times,serif" font-size="14.00">l</text>
<text text-anchor="start" x="2060.5" y="-106.3" font-family="Times,serif" font-size="14.00">n_terms</text>
<text text-anchor="start" x="2060.5" y="-91.3" font-family="Times,serif" font-size="14.00">Q</text>
<text text-anchor="start" x="2060.5" y="-76.3" font-family="Times,serif" font-size="14.00">domain</text>
<polyline fill="none" stroke="black" points="2052.5,-68.5 2267.5,-68.5 "/>
<text text-anchor="start" x="2060.5" y="-53.3" font-family="Times,serif" font-size="14.00">generate_permeability_field</text>
<text text-anchor="start" x="2060.5" y="-38.3" font-family="Times,serif" font-size="14.00">solve_heat_equation</text>
<text text-anchor="start" x="2060.5" y="-23.3" font-family="Times,serif" font-size="14.00">create_limit_state_function</text>
<text text-anchor="start" x="2060.5" y="-8.3" font-family="Times,serif" font-size="14.00">limit_state_function</text>
</g>
<!-- TestVonMisesFisherSampler -->
<g id="node12" class="node">
<title>TestVonMisesFisherSampler</title>
<polygon fill="lightblue" stroke="black" points="2285.5,-34.5 2285.5,-140.5 2522.5,-140.5 2522.5,-34.5 2285.5,-34.5"/>
<text text-anchor="middle" x="2404" y="-125.3" font-family="Times,serif" font-size="14.00">TestVonMisesFisherSampler</text>
<polyline fill="none" stroke="black" points="2285.5,-117.5 2522.5,-117.5 "/>
<text text-anchor="start" x="2293.5" y="-102.3" font-family="Times,serif" font-size="14.00">test_sample_shape</text>
<text text-anchor="start" x="2293.5" y="-87.3" font-family="Times,serif" font-size="14.00">test_samples_are_unit_vectors</text>
<text text-anchor="start" x="2293.5" y="-72.3" font-family="Times,serif" font-size="14.00">test_zero_kappa_uniform</text>
<text text-anchor="start" x="2293.5" y="-57.3" font-family="Times,serif" font-size="14.00">test_high_kappa_concentration</text>
<text text-anchor="start" x="2293.5" y="-42.3" font-family="Times,serif" font-size="14.00">test_circular_vmf</text>
</g>
<!-- TestNakagamiDistribution -->
<g id="node13" class="node">
<title>TestNakagamiDistribution</title>
<polygon fill="lightblue" stroke="black" points="2541,-34.5 2541,-140.5 2799,-140.5 2799,-34.5 2541,-34.5"/>
<text text-anchor="middle" x="2670" y="-125.3" font-family="Times,serif" font-size="14.00">TestNakagamiDistribution</text>
<polyline fill="none" stroke="black" points="2541,-117.5 2799,-117.5 "/>
<text text-anchor="start" x="2549" y="-102.3" font-family="Times,serif" font-size="14.00">test_pdf_positive</text>
<text text-anchor="start" x="2549" y="-87.3" font-family="Times,serif" font-size="14.00">test_pdf_zero_at_zero</text>
<text text-anchor="start" x="2549" y="-72.3" font-family="Times,serif" font-size="14.00">test_sample_shape</text>
<text text-anchor="start" x="2549" y="-57.3" font-family="Times,serif" font-size="14.00">test_sample_mean_approximation</text>
<text text-anchor="start" x="2549" y="-42.3" font-family="Times,serif" font-size="14.00">test_cdf_bounds</text>
</g>
<!-- TestInverseNakagamiDistribution -->
<g id="node14" class="node">
<title>TestInverseNakagamiDistribution</title>
<polygon fill="lightblue" stroke="black" points="2817,-49.5 2817,-125.5 3075,-125.5 3075,-49.5 2817,-49.5"/>
<text text-anchor="middle" x="2946" y="-110.3" font-family="Times,serif" font-size="14.00">TestInverseNakagamiDistribution</text>
<polyline fill="none" stroke="black" points="2817,-102.5 3075,-102.5 "/>
<text text-anchor="start" x="2825" y="-87.3" font-family="Times,serif" font-size="14.00">test_pdf_positive</text>
<text text-anchor="start" x="2825" y="-72.3" font-family="Times,serif" font-size="14.00">test_sample_positive</text>
<text text-anchor="start" x="2825" y="-57.3" font-family="Times,serif" font-size="14.00">test_heavy_tail_property</text>
</g>
<!-- TestvMFNMDistribution -->
<g id="node15" class="node">
<title>TestvMFNMDistribution</title>
<polygon fill="lightblue" stroke="black" points="3093,-34.5 3093,-140.5 3315,-140.5 3315,-34.5 3093,-34.5"/>
<text text-anchor="middle" x="3204" y="-125.3" font-family="Times,serif" font-size="14.00">TestvMFNMDistribution</text>
<polyline fill="none" stroke="black" points="3093,-117.5 3315,-117.5 "/>
<text text-anchor="start" x="3101" y="-102.3" font-family="Times,serif" font-size="14.00">simple_params_2d</text>
<text text-anchor="start" x="3101" y="-87.3" font-family="Times,serif" font-size="14.00">test_initialization</text>
<text text-anchor="start" x="3101" y="-72.3" font-family="Times,serif" font-size="14.00">test_pdf_positive</text>
<text text-anchor="start" x="3101" y="-57.3" font-family="Times,serif" font-size="14.00">test_sample_shape</text>
<text text-anchor="start" x="3101" y="-42.3" font-family="Times,serif" font-size="14.00">test_sample_pdf_consistency</text>
</g>
<!-- TestIntegration -->
<g id="node16" class="node">
<title>TestIntegration</title>
<polygon fill="lightblue" stroke="black" points="3333.5,-57 3333.5,-118 3602.5,-118 3602.5,-57 3333.5,-57"/>
<text text-anchor="middle" x="3468" y="-102.8" font-family="Times,serif" font-size="14.00">TestIntegration</text>
<polyline fill="none" stroke="black" points="3333.5,-95 3602.5,-95 "/>
<text text-anchor="start" x="3341.5" y="-79.8" font-family="Times,serif" font-size="14.00">test_vmfnm_mixture_normalization</text>
<text text-anchor="start" x="3341.5" y="-64.8" font-family="Times,serif" font-size="14.00">test_vmfnm_sampling_consistency</text>
</g>
</g>
</svg>
