<?xml version="1.0" encoding="UTF-8" standalone="no"?>
<!DOCTYPE svg PUBLIC "-//W3C//DTD SVG 1.1//EN"
 "http://www.w3.org/Graphics/SVG/1.1/DTD/svg11.dtd">
<!-- Generated by graphviz version 2.43.0 (0)
 -->
<!-- Title: Classes Pages: 1 -->
<svg width="4080pt" height="256pt"
 viewBox="0.00 0.00 4079.50 256.00" xmlns="http://www.w3.org/2000/svg" xmlns:xlink="http://www.w3.org/1999/xlink">
<g id="graph0" class="graph" transform="scale(1 1) rotate(0) translate(4 252)">
<title>Classes</title>
<polygon fill="white" stroke="transparent" points="-4,4 -4,-252 4075.5,-252 4075.5,4 -4,4"/>
<!-- PerformanceEvaluator -->
<g id="node1" class="node">
<title>PerformanceEvaluator</title>
<polygon fill="lightblue" stroke="black" points="0,-57 0,-118 210,-118 210,-57 0,-57"/>
<text text-anchor="middle" x="105" y="-102.8" font-family="Times,serif" font-size="14.00">PerformanceEvaluator</text>
<polyline fill="none" stroke="black" points="0,-95 210,-95 "/>
<text text-anchor="start" x="8" y="-79.8" font-family="Times,serif" font-size="14.00">run_monte_carlo_reference</text>
<text text-anchor="start" x="8" y="-64.8" font-family="Times,serif" font-size="14.00">compare_methods</text>
</g>
<!-- AdvancedAnalysis -->
<g id="node2" class="node">
<title>AdvancedAnalysis</title>
<polygon fill="lightblue" stroke="black" points="228.5,-57 228.5,-118 457.5,-118 457.5,-57 228.5,-57"/>
<text text-anchor="middle" x="343" y="-102.8" font-family="Times,serif" font-size="14.00">AdvancedAnalysis</text>
<polyline fill="none" stroke="black" points="228.5,-95 457.5,-95 "/>
<text text-anchor="start" x="236.5" y="-79.8" font-family="Times,serif" font-size="14.00">analyze_component_evolution</text>
<text text-anchor="start" x="236.5" y="-64.8" font-family="Times,serif" font-size="14.00">analyze_sample_distribution</text>
</g>
<!-- vMFNMParameters -->
<g id="node3" class="node">
<title>vMFNMParameters</title>
<polygon fill="lightblue" stroke="black" points="476,-57 476,-118 634,-118 634,-57 476,-57"/>
<text text-anchor="middle" x="555" y="-102.8" font-family="Times,serif" font-size="14.00">vMFNMParameters</text>
<polyline fill="none" stroke="black" points="476,-95 634,-95 "/>
<text text-anchor="start" x="484" y="-79.8" font-family="Times,serif" font-size="14.00">K</text>
<text text-anchor="start" x="484" y="-64.8" font-family="Times,serif" font-size="14.00">d</text>
</g>
<!-- _SafeICEHistory -->
<g id="node4" class="node">
<title>_SafeICEHistory</title>
<polygon fill="lightblue" stroke="black" points="652,-64.5 652,-110.5 786,-110.5 786,-64.5 652,-64.5"/>
<text text-anchor="middle" x="719" y="-95.3" font-family="Times,serif" font-size="14.00">_SafeICEHistory</text>
<polyline fill="none" stroke="black" points="652,-87.5 786,-87.5 "/>
<text text-anchor="middle" x="719" y="-72.3" font-family="Times,serif" font-size="14.00"> </text>
</g>
<!-- TypedDict -->
<g id="node21" class="node">
<title>TypedDict</title>
<polygon fill="lightblue" stroke="black" points="674.5,-211.5 674.5,-247.5 763.5,-247.5 763.5,-211.5 674.5,-211.5"/>
<text text-anchor="middle" x="719" y="-225.8" font-family="Times,serif" font-size="14.00">TypedDict</text>
</g>
<!-- _SafeICEHistory&#45;&gt;TypedDict -->
<g id="edge1" class="edge">
<title>_SafeICEHistory&#45;&gt;TypedDict</title>
<path fill="none" stroke="black" d="M719,-110.68C719,-135.21 719,-174.75 719,-201.17"/>
<polygon fill="none" stroke="black" points="715.5,-201.28 719,-211.28 722.5,-201.28 715.5,-201.28"/>
</g>
<!-- SafeICE -->
<g id="node5" class="node">
<title>SafeICE</title>
<polygon fill="lightblue" stroke="black" points="804,-15.5 804,-159.5 908,-159.5 908,-15.5 804,-15.5"/>
<text text-anchor="middle" x="856" y="-144.3" font-family="Times,serif" font-size="14.00">SafeICE</text>
<polyline fill="none" stroke="black" points="804,-136.5 908,-136.5 "/>
<text text-anchor="start" x="812" y="-121.3" font-family="Times,serif" font-size="14.00">g</text>
<text text-anchor="start" x="812" y="-106.3" font-family="Times,serif" font-size="14.00">d</text>
<text text-anchor="start" x="812" y="-91.3" font-family="Times,serif" font-size="14.00">K0</text>
<text text-anchor="start" x="812" y="-76.3" font-family="Times,serif" font-size="14.00">delta_target</text>
<text text-anchor="start" x="812" y="-61.3" font-family="Times,serif" font-size="14.00">delta_star</text>
<polyline fill="none" stroke="black" points="804,-53.5 908,-53.5 "/>
<text text-anchor="start" x="812" y="-38.3" font-family="Times,serif" font-size="14.00">run</text>
<text text-anchor="start" x="812" y="-23.3" font-family="Times,serif" font-size="14.00">cv_objective</text>
</g>
<!-- vMFNMDistribution -->
<g id="node6" class="node">
<title>vMFNMDistribution</title>
<polygon fill="lightblue" stroke="black" points="926.5,-38 926.5,-137 1087.5,-137 1087.5,-38 926.5,-38"/>
<text text-anchor="middle" x="1007" y="-121.8" font-family="Times,serif" font-size="14.00">vMFNMDistribution</text>
<polyline fill="none" stroke="black" points="926.5,-114 1087.5,-114 "/>
<text text-anchor="start" x="934.5" y="-98.8" font-family="Times,serif" font-size="14.00">params</text>
<polyline fill="none" stroke="black" points="926.5,-91 1087.5,-91 "/>
<text text-anchor="start" x="934.5" y="-75.8" font-family="Times,serif" font-size="14.00">pdf</text>
<text text-anchor="start" x="934.5" y="-60.8" font-family="Times,serif" font-size="14.00">sample</text>
<text text-anchor="start" x="934.5" y="-45.8" font-family="Times,serif" font-size="14.00">log_likelihood</text>
</g>
<!-- NakagamiDistribution -->
<g id="node7" class="node">
<title>NakagamiDistribution</title>
<polygon fill="lightblue" stroke="black" points="1105.5,-34.5 1105.5,-140.5 1280.5,-140.5 1280.5,-34.5 1105.5,-34.5"/>
<text text-anchor="middle" x="1193" y="-125.3" font-family="Times,serif" font-size="14.00">NakagamiDistribution</text>
<polyline fill="none" stroke="black" points="1105.5,-117.5 1280.5,-117.5 "/>
<text text-anchor="start" x="1113.5" y="-102.3" font-family="Times,serif" font-size="14.00">pdf</text>
<text text-anchor="start" x="1113.5" y="-87.3" font-family="Times,serif" font-size="14.00">pdf</text>
<text text-anchor="start" x="1113.5" y="-72.3" font-family="Times,serif" font-size="14.00">pdf</text>
<text text-anchor="start" x="1113.5" y="-57.3" font-family="Times,serif" font-size="14.00">cdf</text>
<text text-anchor="start" x="1113.5" y="-42.3" font-family="Times,serif" font-size="14.00">cdf</text>
</g>
<!-- InverseNakagamiDistribution -->
<g id="node8" class="node">
<title>InverseNakagamiDistribution</title>
<polygon fill="lightblue" stroke="black" points="1299,-34.5 1299,-140.5 1527,-140.5 1527,-34.5 1299,-34.5"/>
<text text-anchor="middle" x="1413" y="-125.3" font-family="Times,serif" font-size="14.00">InverseNakagamiDistribution</text>
<polyline fill="none" stroke="black" points="1299,-117.5 1527,-117.5 "/>
<text text-anchor="start" x="1307" y="-102.3" font-family="Times,serif" font-size="14.00">pdf</text>
<text text-anchor="start" x="1307" y="-87.3" font-family="Times,serif" font-size="14.00">pdf</text>
<text text-anchor="start" x="1307" y="-72.3" font-family="Times,serif" font-size="14.00">pdf</text>
<text text-anchor="start" x="1307" y="-57.3" font-family="Times,serif" font-size="14.00">cdf</text>
<text text-anchor="start" x="1307" y="-42.3" font-family="Times,serif" font-size="14.00">cdf</text>
</g>
<!-- VonMisesFisherSampler -->
<g id="node9" class="node">
<title>VonMisesFisherSampler</title>
<polygon fill="lightblue" stroke="black" points="1545.5,-64.5 1545.5,-110.5 1736.5,-110.5 1736.5,-64.5 1545.5,-64.5"/>
<text text-anchor="middle" x="1641" y="-95.3" font-family="Times,serif" font-size="14.00">VonMisesFisherSampler</text>
<polyline fill="none" stroke="black" points="1545.5,-87.5 1736.5,-87.5 "/>
<text text-anchor="start" x="1553.5" y="-72.3" font-family="Times,serif" font-size="14.00">sample</text>
</g>
<!-- PenalizedEMOptimizer -->
<g id="node10" class="node">
<title>PenalizedEMOptimizer</title>
<polygon fill="lightblue" stroke="black" points="1754.5,-45.5 1754.5,-129.5 1935.5,-129.5 1935.5,-45.5 1754.5,-45.5"/>
<text text-anchor="middle" x="1845" y="-114.3" font-family="Times,serif" font-size="14.00">PenalizedEMOptimizer</text>
<polyline fill="none" stroke="black" points="1754.5,-106.5 1935.5,-106.5 "/>
<text text-anchor="start" x="1762.5" y="-91.3" font-family="Times,serif" font-size="14.00">max_em_iterations</text>
<text text-anchor="start" x="1762.5" y="-76.3" font-family="Times,serif" font-size="14.00">em_tolerance</text>
<polyline fill="none" stroke="black" points="1754.5,-68.5 1935.5,-68.5 "/>
<text text-anchor="start" x="1762.5" y="-53.3" font-family="Times,serif" font-size="14.00">fit</text>
</g>
<!-- BenchmarkProblems -->
<g id="node11" class="node">
<title>BenchmarkProblems</title>
<polygon fill="lightblue" stroke="black" points="1953.5,-34.5 1953.5,-140.5 2186.5,-140.5 2186.5,-34.5 1953.5,-34.5"/>
<text text-anchor="middle" x="2070" y="-125.3" font-family="Times,serif" font-size="14.00">BenchmarkProblems</text>
<polyline fill="none" stroke="black" points="1953.5,-117.5 2186.5,-117.5 "/>
<text text-anchor="start" x="1961.5" y="-102.3" font-family="Times,serif" font-size="14.00">four_mode_series_system</text>
<text text-anchor="start" x="1961.5" y="-87.3" font-family="Times,serif" font-size="14.00">limit_state_function</text>
<text text-anchor="start" x="1961.5" y="-72.3" font-family="Times,serif" font-size="14.00">three_mode_problem</text>
<text text-anchor="start" x="1961.5" y="-57.3" font-family="Times,serif" font-size="14.00">limit_state_function</text>
<text text-anchor="start" x="1961.5" y="-42.3" font-family="Times,serif" font-size="14.00">nonlinear_oscillator_simplified</text>
</g>
<!-- HeatTransferProblem -->
<g id="node12" class="node">
<title>HeatTransferProblem</title>
<polygon fill="lightblue" stroke="black" points="2204.5,-0.5 2204.5,-174.5 2419.5,-174.5 2419.5,-0.5 2204.5,-0.5"/>
<text text-anchor="middle" x="2312" y="-159.3" font-family="Times,serif" font-size="14.00">HeatTransferProblem</text>
<polyline fill="none" stroke="black" points="2204.5,-151.5 2419.5,-151.5 "/>
<text text-anchor="start" x="2212.5" y="-136.3" font-family="Times,serif" font-size="14.00">grid_size</text>
<text text-anchor="start" x="2212.5" y="-121.3" font-family="Times,serif" font-size="14.00">l</text>
<text text-anchor="start" x="2212.5" y="-106.3" font-family="Times,serif" font-size="14.00">n_terms</text>
<text text-anchor="start" x="2212.5" y="-91.3" font-family="Times,serif" font-size="14.00">Q</text>
<text text-anchor="start" x="2212.5" y="-76.3" font-family="Times,serif" font-size="14.00">domain</text>
<polyline fill="none" stroke="black" points="2204.5,-68.5 2419.5,-68.5 "/>
<text text-anchor="start" x="2212.5" y="-53.3" font-family="Times,serif" font-size="14.00">generate_permeability_field</text>
<text text-anchor="start" x="2212.5" y="-38.3" font-family="Times,serif" font-size="14.00">solve_heat_equation</text>
<text text-anchor="start" x="2212.5" y="-23.3" font-family="Times,serif" font-size="14.00">create_limit_state_function</text>
<text text-anchor="start" x="2212.5" y="-8.3" font-family="Times,serif" font-size="14.00">limit_state_function</text>
</g>
<!-- Paths -->
<g id="node13" class="node">
<title>Paths</title>
<polygon fill="lightblue" stroke="black" points="2438,-64.5 2438,-110.5 2494,-110.5 2494,-64.5 2438,-64.5"/>
<text text-anchor="middle" x="2466" y="-95.3" font-family="Times,serif" font-size="14.00">Paths</text>
<polyline fill="none" stroke="black" points="2438,-87.5 2494,-87.5 "/>
<text text-anchor="middle" x="2466" y="-72.3" font-family="Times,serif" font-size="14.00"> </text>
</g>
<!-- Options -->
<g id="node14" class="node">
<title>Options</title>
<polygon fill="lightblue" stroke="black" points="2512,-64.5 2512,-110.5 2584,-110.5 2584,-64.5 2512,-64.5"/>
<text text-anchor="middle" x="2548" y="-95.3" font-family="Times,serif" font-size="14.00">Options</text>
<polyline fill="none" stroke="black" points="2512,-87.5 2584,-87.5 "/>
<text text-anchor="middle" x="2548" y="-72.3" font-family="Times,serif" font-size="14.00"> </text>
</g>
<!-- DepRef -->
<g id="node15" class="node">
<title>DepRef</title>
<polygon fill="lightblue" stroke="black" points="2602,-57 2602,-118 2736,-118 2736,-57 2602,-57"/>
<text text-anchor="middle" x="2669" y="-102.8" font-family="Times,serif" font-size="14.00">DepRef</text>
<polyline fill="none" stroke="black" points="2602,-95 2736,-95 "/>
<text text-anchor="start" x="2610" y="-79.8" font-family="Times,serif" font-size="14.00">emit_from_table</text>
<text text-anchor="start" x="2610" y="-64.8" font-family="Times,serif" font-size="14.00">emit_from_array</text>
</g>
<!-- TestVonMisesFisherSampler -->
<g id="node16" class="node">
<title>TestVonMisesFisherSampler</title>
<polygon fill="lightblue" stroke="black" points="2754.5,-34.5 2754.5,-140.5 2991.5,-140.5 2991.5,-34.5 2754.5,-34.5"/>
<text text-anchor="middle" x="2873" y="-125.3" font-family="Times,serif" font-size="14.00">TestVonMisesFisherSampler</text>
<polyline fill="none" stroke="black" points="2754.5,-117.5 2991.5,-117.5 "/>
<text text-anchor="start" x="2762.5" y="-102.3" font-family="Times,serif" font-size="14.00">test_sample_shape</text>
<text text-anchor="start" x="2762.5" y="-87.3" font-family="Times,serif" font-size="14.00">test_samples_are_unit_vectors</text>
<text text-anchor="start" x="2762.5" y="-72.3" font-family="Times,serif" font-size="14.00">test_zero_kappa_uniform</text>
<text text-anchor="start" x="2762.5" y="-57.3" font-family="Times,serif" font-size="14.00">test_high_kappa_concentration</text>
<text text-anchor="start" x="2762.5" y="-42.3" font-family="Times,serif" font-size="14.00">test_circular_vmf</text>
</g>
<!-- TestNakagamiDistribution -->
<g id="node17" class="node">
<title>TestNakagamiDistribution</title>
<polygon fill="lightblue" stroke="black" points="3010,-34.5 3010,-140.5 3268,-140.5 3268,-34.5 3010,-34.5"/>
<text text-anchor="middle" x="3139" y="-125.3" font-family="Times,serif" font-size="14.00">TestNakagamiDistribution</text>
<polyline fill="none" stroke="black" points="3010,-117.5 3268,-117.5 "/>
<text text-anchor="start" x="3018" y="-102.3" font-family="Times,serif" font-size="14.00">test_pdf_positive</text>
<text text-anchor="start" x="3018" y="-87.3" font-family="Times,serif" font-size="14.00">test_pdf_zero_at_zero</text>
<text text-anchor="start" x="3018" y="-72.3" font-family="Times,serif" font-size="14.00">test_sample_shape</text>
<text text-anchor="start" x="3018" y="-57.3" font-family="Times,serif" font-size="14.00">test_sample_mean_approximation</text>
<text text-anchor="start" x="3018" y="-42.3" font-family="Times,serif" font-size="14.00">test_cdf_bounds</text>
</g>
<!-- TestInverseNakagamiDistribution -->
<g id="node18" class="node">
<title>TestInverseNakagamiDistribution</title>
<polygon fill="lightblue" stroke="black" points="3286,-49.5 3286,-125.5 3544,-125.5 3544,-49.5 3286,-49.5"/>
<text text-anchor="middle" x="3415" y="-110.3" font-family="Times,serif" font-size="14.00">TestInverseNakagamiDistribution</text>
<polyline fill="none" stroke="black" points="3286,-102.5 3544,-102.5 "/>
<text text-anchor="start" x="3294" y="-87.3" font-family="Times,serif" font-size="14.00">test_pdf_positive</text>
<text text-anchor="start" x="3294" y="-72.3" font-family="Times,serif" font-size="14.00">test_sample_positive</text>
<text text-anchor="start" x="3294" y="-57.3" font-family="Times,serif" font-size="14.00">test_heavy_tail_property</text>
</g>
<!-- TestvMFNMDistribution -->
<g id="node19" class="node">
<title>TestvMFNMDistribution</title>
<polygon fill="lightblue" stroke="black" points="3562,-34.5 3562,-140.5 3784,-140.5 3784,-34.5 3562,-34.5"/>
<text text-anchor="middle" x="3673" y="-125.3" font-family="Times,serif" font-size="14.00">TestvMFNMDistribution</text>
<polyline fill="none" stroke="black" points="3562,-117.5 3784,-117.5 "/>
<text text-anchor="start" x="3570" y="-102.3" font-family="Times,serif" font-size="14.00">simple_params_2d</text>
<text text-anchor="start" x="3570" y="-87.3" font-family="Times,serif" font-size="14.00">test_initialization</text>
<text text-anchor="start" x="3570" y="-72.3" font-family="Times,serif" font-size="14.00">test_pdf_positive</text>
<text text-anchor="start" x="3570" y="-57.3" font-family="Times,serif" font-size="14.00">test_sample_shape</text>
<text text-anchor="start" x="3570" y="-42.3" font-family="Times,serif" font-size="14.00">test_sample_pdf_consistency</text>
</g>
<!-- TestIntegration -->
<g id="node20" class="node">
<title>TestIntegration</title>
<polygon fill="lightblue" stroke="black" points="3802.5,-57 3802.5,-118 4071.5,-118 4071.5,-57 3802.5,-57"/>
<text text-anchor="middle" x="3937" y="-102.8" font-family="Times,serif" font-size="14.00">TestIntegration</text>
<polyline fill="none" stroke="black" points="3802.5,-95 4071.5,-95 "/>
<text text-anchor="start" x="3810.5" y="-79.8" font-family="Times,serif" font-size="14.00">test_vmfnm_mixture_normalization</text>
<text text-anchor="start" x="3810.5" y="-64.8" font-family="Times,serif" font-size="14.00">test_vmfnm_sampling_consistency</text>
</g>
</g>
</svg>
