<?xml version="1.0" encoding="UTF-8" standalone="no"?>
<!DOCTYPE svg PUBLIC "-//W3C//DTD SVG 1.1//EN"
 "http://www.w3.org/Graphics/SVG/1.1/DTD/svg11.dtd">
<!-- Generated by graphviz version 2.43.0 (0)
 -->
<!-- Title: Classes Pages: 1 -->
<svg width="11410pt" height="364pt"
 viewBox="0.00 0.00 11410.00 364.00" xmlns="http://www.w3.org/2000/svg" xmlns:xlink="http://www.w3.org/1999/xlink">
<g id="graph0" class="graph" transform="scale(1 1) rotate(0) translate(4 360)">
<title>Classes</title>
<polygon fill="white" stroke="transparent" points="-4,4 -4,-360 11406,-360 11406,4 -4,4"/>
<!-- InteractiveVisualizer -->
<g id="node1" class="node">
<title>InteractiveVisualizer</title>
<polygon fill="lightblue" stroke="black" points="0,-42 0,-148 259,-148 259,-42 0,-42"/>
<text text-anchor="middle" x="129.5" y="-132.8" font-family="Times,serif" font-size="14.00">InteractiveVisualizer</text>
<polyline fill="none" stroke="black" points="0,-125 259,-125 "/>
<text text-anchor="start" x="8" y="-109.8" font-family="Times,serif" font-size="14.00">plot_convergence_interactive</text>
<text text-anchor="start" x="8" y="-94.8" font-family="Times,serif" font-size="14.00">plot_sample_evolution_3d</text>
<text text-anchor="start" x="8" y="-79.8" font-family="Times,serif" font-size="14.00">plot_mixture_evolution</text>
<text text-anchor="start" x="8" y="-64.8" font-family="Times,serif" font-size="14.00">plot_realtime_monitor</text>
<text text-anchor="start" x="8" y="-49.8" font-family="Times,serif" font-size="14.00">create_parameter_sensitivity_plot</text>
</g>
<!-- PerformanceEvaluator -->
<g id="node2" class="node">
<title>PerformanceEvaluator</title>
<polygon fill="lightblue" stroke="black" points="277.5,-64.5 277.5,-125.5 487.5,-125.5 487.5,-64.5 277.5,-64.5"/>
<text text-anchor="middle" x="382.5" y="-110.3" font-family="Times,serif" font-size="14.00">PerformanceEvaluator</text>
<polyline fill="none" stroke="black" points="277.5,-102.5 487.5,-102.5 "/>
<text text-anchor="start" x="285.5" y="-87.3" font-family="Times,serif" font-size="14.00">run_monte_carlo_reference</text>
<text text-anchor="start" x="285.5" y="-72.3" font-family="Times,serif" font-size="14.00">compare_methods</text>
</g>
<!-- AdvancedAnalysis -->
<g id="node3" class="node">
<title>AdvancedAnalysis</title>
<polygon fill="lightblue" stroke="black" points="506,-64.5 506,-125.5 735,-125.5 735,-64.5 506,-64.5"/>
<text text-anchor="middle" x="620.5" y="-110.3" font-family="Times,serif" font-size="14.00">AdvancedAnalysis</text>
<polyline fill="none" stroke="black" points="506,-102.5 735,-102.5 "/>
<text text-anchor="start" x="514" y="-87.3" font-family="Times,serif" font-size="14.00">analyze_component_evolution</text>
<text text-anchor="start" x="514" y="-72.3" font-family="Times,serif" font-size="14.00">analyze_sample_distribution</text>
</g>
<!-- AdaptiveSafeICE -->
<g id="node4" class="node">
<title>AdaptiveSafeICE</title>
<polygon fill="lightblue" stroke="black" points="753.5,-45.5 753.5,-144.5 901.5,-144.5 901.5,-45.5 753.5,-45.5"/>
<text text-anchor="middle" x="827.5" y="-129.3" font-family="Times,serif" font-size="14.00">AdaptiveSafeICE</text>
<polyline fill="none" stroke="black" points="753.5,-121.5 901.5,-121.5 "/>
<text text-anchor="start" x="761.5" y="-106.3" font-family="Times,serif" font-size="14.00">auto_tune</text>
<text text-anchor="start" x="761.5" y="-91.3" font-family="Times,serif" font-size="14.00">adaptive_schedule</text>
<polyline fill="none" stroke="black" points="753.5,-83.5 901.5,-83.5 "/>
<text text-anchor="start" x="761.5" y="-68.3" font-family="Times,serif" font-size="14.00">objective</text>
<text text-anchor="start" x="761.5" y="-53.3" font-family="Times,serif" font-size="14.00">run</text>
</g>
<!-- OptimizedSafeICE -->
<g id="node8" class="node">
<title>OptimizedSafeICE</title>
<polygon fill="lightblue" stroke="black" points="753.5,-226.5 753.5,-355.5 901.5,-355.5 901.5,-226.5 753.5,-226.5"/>
<text text-anchor="middle" x="827.5" y="-340.3" font-family="Times,serif" font-size="14.00">OptimizedSafeICE</text>
<polyline fill="none" stroke="black" points="753.5,-332.5 901.5,-332.5 "/>
<text text-anchor="start" x="761.5" y="-317.3" font-family="Times,serif" font-size="14.00">g</text>
<text text-anchor="start" x="761.5" y="-302.3" font-family="Times,serif" font-size="14.00">d</text>
<text text-anchor="start" x="761.5" y="-287.3" font-family="Times,serif" font-size="14.00">K0</text>
<text text-anchor="start" x="761.5" y="-272.3" font-family="Times,serif" font-size="14.00">delta_target</text>
<text text-anchor="start" x="761.5" y="-257.3" font-family="Times,serif" font-size="14.00">delta_star</text>
<polyline fill="none" stroke="black" points="753.5,-249.5 901.5,-249.5 "/>
<text text-anchor="start" x="761.5" y="-234.3" font-family="Times,serif" font-size="14.00">run</text>
</g>
<!-- AdaptiveSafeICE&#45;&gt;OptimizedSafeICE -->
<g id="edge1" class="edge">
<title>AdaptiveSafeICE&#45;&gt;OptimizedSafeICE</title>
<path fill="none" stroke="black" d="M827.5,-144.95C827.5,-166.56 827.5,-192.43 827.5,-216.29"/>
<polygon fill="none" stroke="black" points="824,-216.38 827.5,-226.38 831,-216.38 824,-216.38"/>
</g>
<!-- vMFNMParameters -->
<g id="node5" class="node">
<title>vMFNMParameters</title>
<polygon fill="lightblue" stroke="black" points="919.5,-23 919.5,-167 1077.5,-167 1077.5,-23 919.5,-23"/>
<text text-anchor="middle" x="998.5" y="-151.8" font-family="Times,serif" font-size="14.00">vMFNMParameters</text>
<polyline fill="none" stroke="black" points="919.5,-144 1077.5,-144 "/>
<text text-anchor="start" x="927.5" y="-128.8" font-family="Times,serif" font-size="14.00">pi</text>
<text text-anchor="start" x="927.5" y="-113.8" font-family="Times,serif" font-size="14.00">m</text>
<text text-anchor="start" x="927.5" y="-98.8" font-family="Times,serif" font-size="14.00">Omega</text>
<text text-anchor="start" x="927.5" y="-83.8" font-family="Times,serif" font-size="14.00">mu</text>
<text text-anchor="start" x="927.5" y="-68.8" font-family="Times,serif" font-size="14.00">kappa</text>
<polyline fill="none" stroke="black" points="919.5,-61 1077.5,-61 "/>
<text text-anchor="start" x="927.5" y="-45.8" font-family="Times,serif" font-size="14.00">K</text>
<text text-anchor="start" x="927.5" y="-30.8" font-family="Times,serif" font-size="14.00">d</text>
</g>
<!-- _SafeICEHistory -->
<g id="node6" class="node">
<title>_SafeICEHistory</title>
<polygon fill="lightblue" stroke="black" points="1095.5,-72 1095.5,-118 1229.5,-118 1229.5,-72 1095.5,-72"/>
<text text-anchor="middle" x="1162.5" y="-102.8" font-family="Times,serif" font-size="14.00">_SafeICEHistory</text>
<polyline fill="none" stroke="black" points="1095.5,-95 1229.5,-95 "/>
<text text-anchor="middle" x="1162.5" y="-79.8" font-family="Times,serif" font-size="14.00"> </text>
</g>
<!-- TypedDict -->
<g id="node51" class="node">
<title>TypedDict</title>
<polygon fill="lightblue" stroke="black" points="1118,-273 1118,-309 1207,-309 1207,-273 1118,-273"/>
<text text-anchor="middle" x="1162.5" y="-287.3" font-family="Times,serif" font-size="14.00">TypedDict</text>
</g>
<!-- _SafeICEHistory&#45;&gt;TypedDict -->
<g id="edge2" class="edge">
<title>_SafeICEHistory&#45;&gt;TypedDict</title>
<path fill="none" stroke="black" d="M1162.5,-118.25C1162.5,-154.01 1162.5,-224.13 1162.5,-262.8"/>
<polygon fill="none" stroke="black" points="1159,-262.82 1162.5,-272.82 1166,-262.82 1159,-262.82"/>
</g>
<!-- SafeICE -->
<g id="node7" class="node">
<title>SafeICE</title>
<polygon fill="lightblue" stroke="black" points="1247.5,-23 1247.5,-167 1351.5,-167 1351.5,-23 1247.5,-23"/>
<text text-anchor="middle" x="1299.5" y="-151.8" font-family="Times,serif" font-size="14.00">SafeICE</text>
<polyline fill="none" stroke="black" points="1247.5,-144 1351.5,-144 "/>
<text text-anchor="start" x="1255.5" y="-128.8" font-family="Times,serif" font-size="14.00">g</text>
<text text-anchor="start" x="1255.5" y="-113.8" font-family="Times,serif" font-size="14.00">d</text>
<text text-anchor="start" x="1255.5" y="-98.8" font-family="Times,serif" font-size="14.00">K0</text>
<text text-anchor="start" x="1255.5" y="-83.8" font-family="Times,serif" font-size="14.00">delta_target</text>
<text text-anchor="start" x="1255.5" y="-68.8" font-family="Times,serif" font-size="14.00">delta_star</text>
<polyline fill="none" stroke="black" points="1247.5,-61 1351.5,-61 "/>
<text text-anchor="start" x="1255.5" y="-45.8" font-family="Times,serif" font-size="14.00">run</text>
<text text-anchor="start" x="1255.5" y="-30.8" font-family="Times,serif" font-size="14.00">cv_objective</text>
</g>
<!-- vMFNMDistribution -->
<g id="node9" class="node">
<title>vMFNMDistribution</title>
<polygon fill="lightblue" stroke="black" points="1370,-45.5 1370,-144.5 1531,-144.5 1531,-45.5 1370,-45.5"/>
<text text-anchor="middle" x="1450.5" y="-129.3" font-family="Times,serif" font-size="14.00">vMFNMDistribution</text>
<polyline fill="none" stroke="black" points="1370,-121.5 1531,-121.5 "/>
<text text-anchor="start" x="1378" y="-106.3" font-family="Times,serif" font-size="14.00">params</text>
<polyline fill="none" stroke="black" points="1370,-98.5 1531,-98.5 "/>
<text text-anchor="start" x="1378" y="-83.3" font-family="Times,serif" font-size="14.00">pdf</text>
<text text-anchor="start" x="1378" y="-68.3" font-family="Times,serif" font-size="14.00">sample</text>
<text text-anchor="start" x="1378" y="-53.3" font-family="Times,serif" font-size="14.00">log_likelihood</text>
</g>
<!-- NakagamiDistribution -->
<g id="node10" class="node">
<title>NakagamiDistribution</title>
<polygon fill="lightblue" stroke="black" points="1549,-42 1549,-148 1724,-148 1724,-42 1549,-42"/>
<text text-anchor="middle" x="1636.5" y="-132.8" font-family="Times,serif" font-size="14.00">NakagamiDistribution</text>
<polyline fill="none" stroke="black" points="1549,-125 1724,-125 "/>
<text text-anchor="start" x="1557" y="-109.8" font-family="Times,serif" font-size="14.00">pdf</text>
<text text-anchor="start" x="1557" y="-94.8" font-family="Times,serif" font-size="14.00">pdf</text>
<text text-anchor="start" x="1557" y="-79.8" font-family="Times,serif" font-size="14.00">pdf</text>
<text text-anchor="start" x="1557" y="-64.8" font-family="Times,serif" font-size="14.00">log_pdf</text>
<text text-anchor="start" x="1557" y="-49.8" font-family="Times,serif" font-size="14.00">cdf</text>
</g>
<!-- InverseNakagamiDistribution -->
<g id="node11" class="node">
<title>InverseNakagamiDistribution</title>
<polygon fill="lightblue" stroke="black" points="1742.5,-42 1742.5,-148 1970.5,-148 1970.5,-42 1742.5,-42"/>
<text text-anchor="middle" x="1856.5" y="-132.8" font-family="Times,serif" font-size="14.00">InverseNakagamiDistribution</text>
<polyline fill="none" stroke="black" points="1742.5,-125 1970.5,-125 "/>
<text text-anchor="start" x="1750.5" y="-109.8" font-family="Times,serif" font-size="14.00">pdf</text>
<text text-anchor="start" x="1750.5" y="-94.8" font-family="Times,serif" font-size="14.00">pdf</text>
<text text-anchor="start" x="1750.5" y="-79.8" font-family="Times,serif" font-size="14.00">pdf</text>
<text text-anchor="start" x="1750.5" y="-64.8" font-family="Times,serif" font-size="14.00">cdf</text>
<text text-anchor="start" x="1750.5" y="-49.8" font-family="Times,serif" font-size="14.00">cdf</text>
</g>
<!-- VonMisesFisherSampler -->
<g id="node12" class="node">
<title>VonMisesFisherSampler</title>
<polygon fill="lightblue" stroke="black" points="1989,-72 1989,-118 2180,-118 2180,-72 1989,-72"/>
<text text-anchor="middle" x="2084.5" y="-102.8" font-family="Times,serif" font-size="14.00">VonMisesFisherSampler</text>
<polyline fill="none" stroke="black" points="1989,-95 2180,-95 "/>
<text text-anchor="start" x="1997" y="-79.8" font-family="Times,serif" font-size="14.00">sample</text>
</g>
<!-- PenalizedEMOptimizer -->
<g id="node13" class="node">
<title>PenalizedEMOptimizer</title>
<polygon fill="lightblue" stroke="black" points="2198,-53 2198,-137 2379,-137 2379,-53 2198,-53"/>
<text text-anchor="middle" x="2288.5" y="-121.8" font-family="Times,serif" font-size="14.00">PenalizedEMOptimizer</text>
<polyline fill="none" stroke="black" points="2198,-114 2379,-114 "/>
<text text-anchor="start" x="2206" y="-98.8" font-family="Times,serif" font-size="14.00">max_em_iterations</text>
<text text-anchor="start" x="2206" y="-83.8" font-family="Times,serif" font-size="14.00">em_tolerance</text>
<polyline fill="none" stroke="black" points="2198,-76 2379,-76 "/>
<text text-anchor="start" x="2206" y="-60.8" font-family="Times,serif" font-size="14.00">fit</text>
</g>
<!-- TimeVariantProblem -->
<g id="node14" class="node">
<title>TimeVariantProblem</title>
<polygon fill="lightblue" stroke="black" points="2397,-0.5 2397,-189.5 2668,-189.5 2668,-0.5 2397,-0.5"/>
<text text-anchor="middle" x="2532.5" y="-174.3" font-family="Times,serif" font-size="14.00">TimeVariantProblem</text>
<polyline fill="none" stroke="black" points="2397,-166.5 2668,-166.5 "/>
<text text-anchor="start" x="2405" y="-151.3" font-family="Times,serif" font-size="14.00">g_base</text>
<text text-anchor="start" x="2405" y="-136.3" font-family="Times,serif" font-size="14.00">time_points</text>
<text text-anchor="start" x="2405" y="-121.3" font-family="Times,serif" font-size="14.00">n_time</text>
<text text-anchor="start" x="2405" y="-106.3" font-family="Times,serif" font-size="14.00">correlation_func</text>
<text text-anchor="start" x="2405" y="-91.3" font-family="Times,serif" font-size="14.00">correlation_matrix</text>
<polyline fill="none" stroke="black" points="2397,-83.5 2668,-83.5 "/>
<text text-anchor="start" x="2405" y="-68.3" font-family="Times,serif" font-size="14.00">get_series_system_limit_state</text>
<text text-anchor="start" x="2405" y="-53.3" font-family="Times,serif" font-size="14.00">g_series</text>
<text text-anchor="start" x="2405" y="-38.3" font-family="Times,serif" font-size="14.00">get_parallel_system_limit_state</text>
<text text-anchor="start" x="2405" y="-23.3" font-family="Times,serif" font-size="14.00">g_parallel</text>
<text text-anchor="start" x="2405" y="-8.3" font-family="Times,serif" font-size="14.00">get_cumulative_damage_limit_state</text>
</g>
<!-- SystemReliabilityProblem -->
<g id="node15" class="node">
<title>SystemReliabilityProblem</title>
<polygon fill="lightblue" stroke="black" points="2686,-8 2686,-182 2889,-182 2889,-8 2686,-8"/>
<text text-anchor="middle" x="2787.5" y="-166.8" font-family="Times,serif" font-size="14.00">SystemReliabilityProblem</text>
<polyline fill="none" stroke="black" points="2686,-159 2889,-159 "/>
<text text-anchor="start" x="2694" y="-143.8" font-family="Times,serif" font-size="14.00">component_funcs</text>
<text text-anchor="start" x="2694" y="-128.8" font-family="Times,serif" font-size="14.00">n_components</text>
<text text-anchor="start" x="2694" y="-113.8" font-family="Times,serif" font-size="14.00">correlation_matrix</text>
<text text-anchor="start" x="2694" y="-98.8" font-family="Times,serif" font-size="14.00">correlation_matrix</text>
<polyline fill="none" stroke="black" points="2686,-91 2889,-91 "/>
<text text-anchor="start" x="2694" y="-75.8" font-family="Times,serif" font-size="14.00">get_series_system</text>
<text text-anchor="start" x="2694" y="-60.8" font-family="Times,serif" font-size="14.00">g_series</text>
<text text-anchor="start" x="2694" y="-45.8" font-family="Times,serif" font-size="14.00">get_parallel_system</text>
<text text-anchor="start" x="2694" y="-30.8" font-family="Times,serif" font-size="14.00">g_parallel</text>
<text text-anchor="start" x="2694" y="-15.8" font-family="Times,serif" font-size="14.00">get_k_out_of_n_system</text>
</g>
<!-- StochasticProcessProblem -->
<g id="node16" class="node">
<title>StochasticProcessProblem</title>
<polygon fill="lightblue" stroke="black" points="2907.5,-15.5 2907.5,-174.5 3113.5,-174.5 3113.5,-15.5 2907.5,-15.5"/>
<text text-anchor="middle" x="3010.5" y="-159.3" font-family="Times,serif" font-size="14.00">StochasticProcessProblem</text>
<polyline fill="none" stroke="black" points="2907.5,-151.5 3113.5,-151.5 "/>
<text text-anchor="start" x="2915.5" y="-136.3" font-family="Times,serif" font-size="14.00">mean_func</text>
<text text-anchor="start" x="2915.5" y="-121.3" font-family="Times,serif" font-size="14.00">cov_func</text>
<text text-anchor="start" x="2915.5" y="-106.3" font-family="Times,serif" font-size="14.00">mesh_points</text>
<text text-anchor="start" x="2915.5" y="-91.3" font-family="Times,serif" font-size="14.00">n_points</text>
<text text-anchor="start" x="2915.5" y="-76.3" font-family="Times,serif" font-size="14.00">cov_matrix</text>
<polyline fill="none" stroke="black" points="2907.5,-68.5 3113.5,-68.5 "/>
<text text-anchor="start" x="2915.5" y="-53.3" font-family="Times,serif" font-size="14.00">generate_random_field</text>
<text text-anchor="start" x="2915.5" y="-38.3" font-family="Times,serif" font-size="14.00">get_excursion_limit_state</text>
<text text-anchor="start" x="2915.5" y="-23.3" font-family="Times,serif" font-size="14.00">g_excursion</text>
</g>
<!-- NetworkReliabilityProblem -->
<g id="node17" class="node">
<title>NetworkReliabilityProblem</title>
<polygon fill="lightblue" stroke="black" points="3131.5,-23 3131.5,-167 3347.5,-167 3347.5,-23 3131.5,-23"/>
<text text-anchor="middle" x="3239.5" y="-151.8" font-family="Times,serif" font-size="14.00">NetworkReliabilityProblem</text>
<polyline fill="none" stroke="black" points="3131.5,-144 3347.5,-144 "/>
<text text-anchor="start" x="3139.5" y="-128.8" font-family="Times,serif" font-size="14.00">adj_matrix</text>
<text text-anchor="start" x="3139.5" y="-113.8" font-family="Times,serif" font-size="14.00">n_nodes</text>
<text text-anchor="start" x="3139.5" y="-98.8" font-family="Times,serif" font-size="14.00">edges</text>
<text text-anchor="start" x="3139.5" y="-83.8" font-family="Times,serif" font-size="14.00">n_edges</text>
<text text-anchor="start" x="3139.5" y="-68.8" font-family="Times,serif" font-size="14.00">edge_funcs</text>
<polyline fill="none" stroke="black" points="3131.5,-61 3347.5,-61 "/>
<text text-anchor="start" x="3139.5" y="-45.8" font-family="Times,serif" font-size="14.00">get_connectivity_limit_state</text>
<text text-anchor="start" x="3139.5" y="-30.8" font-family="Times,serif" font-size="14.00">g_connectivity</text>
</g>
<!-- BenchmarkProblems -->
<g id="node18" class="node">
<title>BenchmarkProblems</title>
<polygon fill="lightblue" stroke="black" points="3366,-42 3366,-148 3599,-148 3599,-42 3366,-42"/>
<text text-anchor="middle" x="3482.5" y="-132.8" font-family="Times,serif" font-size="14.00">BenchmarkProblems</text>
<polyline fill="none" stroke="black" points="3366,-125 3599,-125 "/>
<text text-anchor="start" x="3374" y="-109.8" font-family="Times,serif" font-size="14.00">four_mode_series_system</text>
<text text-anchor="start" x="3374" y="-94.8" font-family="Times,serif" font-size="14.00">limit_state_function</text>
<text text-anchor="start" x="3374" y="-79.8" font-family="Times,serif" font-size="14.00">three_mode_problem</text>
<text text-anchor="start" x="3374" y="-64.8" font-family="Times,serif" font-size="14.00">limit_state_function</text>
<text text-anchor="start" x="3374" y="-49.8" font-family="Times,serif" font-size="14.00">nonlinear_oscillator_simplified</text>
</g>
<!-- HeatTransferProblem -->
<g id="node19" class="node">
<title>HeatTransferProblem</title>
<polygon fill="lightblue" stroke="black" points="3617,-0.5 3617,-189.5 3832,-189.5 3832,-0.5 3617,-0.5"/>
<text text-anchor="middle" x="3724.5" y="-174.3" font-family="Times,serif" font-size="14.00">HeatTransferProblem</text>
<polyline fill="none" stroke="black" points="3617,-166.5 3832,-166.5 "/>
<text text-anchor="start" x="3625" y="-151.3" font-family="Times,serif" font-size="14.00">grid_size</text>
<text text-anchor="start" x="3625" y="-136.3" font-family="Times,serif" font-size="14.00">l</text>
<text text-anchor="start" x="3625" y="-121.3" font-family="Times,serif" font-size="14.00">correlation_length</text>
<text text-anchor="start" x="3625" y="-106.3" font-family="Times,serif" font-size="14.00">n_terms</text>
<text text-anchor="start" x="3625" y="-91.3" font-family="Times,serif" font-size="14.00">field_std</text>
<polyline fill="none" stroke="black" points="3617,-83.5 3832,-83.5 "/>
<text text-anchor="start" x="3625" y="-68.3" font-family="Times,serif" font-size="14.00">generate_permeability_field</text>
<text text-anchor="start" x="3625" y="-53.3" font-family="Times,serif" font-size="14.00">solve_heat_equation</text>
<text text-anchor="start" x="3625" y="-38.3" font-family="Times,serif" font-size="14.00">create_limit_state_function</text>
<text text-anchor="start" x="3625" y="-23.3" font-family="Times,serif" font-size="14.00">limit_state_function</text>
<text text-anchor="start" x="3625" y="-8.3" font-family="Times,serif" font-size="14.00">get_limit_state_function</text>
</g>
<!-- PerformanceCache -->
<g id="node20" class="node">
<title>PerformanceCache</title>
<polygon fill="lightblue" stroke="black" points="3850,-45.5 3850,-144.5 4029,-144.5 4029,-45.5 3850,-45.5"/>
<text text-anchor="middle" x="3939.5" y="-129.3" font-family="Times,serif" font-size="14.00">PerformanceCache</text>
<polyline fill="none" stroke="black" points="3850,-121.5 4029,-121.5 "/>
<text text-anchor="start" x="3858" y="-106.3" font-family="Times,serif" font-size="14.00">max_size</text>
<polyline fill="none" stroke="black" points="3850,-98.5 4029,-98.5 "/>
<text text-anchor="start" x="3858" y="-83.3" font-family="Times,serif" font-size="14.00">clear</text>
<text text-anchor="start" x="3858" y="-68.3" font-family="Times,serif" font-size="14.00">get_omega_in</text>
<text text-anchor="start" x="3858" y="-53.3" font-family="Times,serif" font-size="14.00">get_vmf_normalization</text>
</g>
<!-- VectorizedOperations -->
<g id="node21" class="node">
<title>VectorizedOperations</title>
<polygon fill="lightblue" stroke="black" points="4047.5,-49.5 4047.5,-140.5 4293.5,-140.5 4293.5,-49.5 4047.5,-49.5"/>
<text text-anchor="middle" x="4170.5" y="-125.3" font-family="Times,serif" font-size="14.00">VectorizedOperations</text>
<polyline fill="none" stroke="black" points="4047.5,-117.5 4293.5,-117.5 "/>
<text text-anchor="start" x="4055.5" y="-102.3" font-family="Times,serif" font-size="14.00">compute_radii_batch</text>
<text text-anchor="start" x="4055.5" y="-87.3" font-family="Times,serif" font-size="14.00">normalize_directions_batch</text>
<text text-anchor="start" x="4055.5" y="-72.3" font-family="Times,serif" font-size="14.00">evaluate_vmf_density_batch</text>
<text text-anchor="start" x="4055.5" y="-57.3" font-family="Times,serif" font-size="14.00">evaluate_mixture_density_batch</text>
</g>
<!-- MemoryEfficientSampling -->
<g id="node22" class="node">
<title>MemoryEfficientSampling</title>
<polygon fill="lightblue" stroke="black" points="4311.5,-64.5 4311.5,-125.5 4539.5,-125.5 4539.5,-64.5 4311.5,-64.5"/>
<text text-anchor="middle" x="4425.5" y="-110.3" font-family="Times,serif" font-size="14.00">MemoryEfficientSampling</text>
<polyline fill="none" stroke="black" points="4311.5,-102.5 4539.5,-102.5 "/>
<text text-anchor="start" x="4319.5" y="-87.3" font-family="Times,serif" font-size="14.00">generate_samples_in_batches</text>
<text text-anchor="start" x="4319.5" y="-72.3" font-family="Times,serif" font-size="14.00">evaluate_function_in_batches</text>
</g>
<!-- ParallelProcessor -->
<g id="node23" class="node">
<title>ParallelProcessor</title>
<polygon fill="lightblue" stroke="black" points="4558,-72 4558,-118 4699,-118 4699,-72 4558,-72"/>
<text text-anchor="middle" x="4628.5" y="-102.8" font-family="Times,serif" font-size="14.00">ParallelProcessor</text>
<polyline fill="none" stroke="black" points="4558,-95 4699,-95 "/>
<text text-anchor="start" x="4566" y="-79.8" font-family="Times,serif" font-size="14.00">parallel_map</text>
</g>
<!-- OptimizationUtils -->
<g id="node24" class="node">
<title>OptimizationUtils</title>
<polygon fill="lightblue" stroke="black" points="4717,-42 4717,-148 4888,-148 4888,-42 4717,-42"/>
<text text-anchor="middle" x="4802.5" y="-132.8" font-family="Times,serif" font-size="14.00">OptimizationUtils</text>
<polyline fill="none" stroke="black" points="4717,-125 4888,-125 "/>
<text text-anchor="start" x="4725" y="-109.8" font-family="Times,serif" font-size="14.00">preallocate_arrays</text>
<text text-anchor="start" x="4725" y="-94.8" font-family="Times,serif" font-size="14.00">check_memory_usage</text>
<text text-anchor="start" x="4725" y="-79.8" font-family="Times,serif" font-size="14.00">cached_chi2_pdf</text>
<text text-anchor="start" x="4725" y="-64.8" font-family="Times,serif" font-size="14.00">cached_bessel_iv</text>
<text text-anchor="start" x="4725" y="-49.8" font-family="Times,serif" font-size="14.00">wrapper</text>
</g>
<!-- Paths -->
<g id="node25" class="node">
<title>Paths</title>
<polygon fill="lightblue" stroke="black" points="4906.5,-72 4906.5,-118 4962.5,-118 4962.5,-72 4906.5,-72"/>
<text text-anchor="middle" x="4934.5" y="-102.8" font-family="Times,serif" font-size="14.00">Paths</text>
<polyline fill="none" stroke="black" points="4906.5,-95 4962.5,-95 "/>
<text text-anchor="middle" x="4934.5" y="-79.8" font-family="Times,serif" font-size="14.00"> </text>
</g>
<!-- Options -->
<g id="node26" class="node">
<title>Options</title>
<polygon fill="lightblue" stroke="black" points="4980.5,-72 4980.5,-118 5052.5,-118 5052.5,-72 4980.5,-72"/>
<text text-anchor="middle" x="5016.5" y="-102.8" font-family="Times,serif" font-size="14.00">Options</text>
<polyline fill="none" stroke="black" points="4980.5,-95 5052.5,-95 "/>
<text text-anchor="middle" x="5016.5" y="-79.8" font-family="Times,serif" font-size="14.00"> </text>
</g>
<!-- DepRef -->
<g id="node27" class="node">
<title>DepRef</title>
<polygon fill="lightblue" stroke="black" points="5070.5,-64.5 5070.5,-125.5 5204.5,-125.5 5204.5,-64.5 5070.5,-64.5"/>
<text text-anchor="middle" x="5137.5" y="-110.3" font-family="Times,serif" font-size="14.00">DepRef</text>
<polyline fill="none" stroke="black" points="5070.5,-102.5 5204.5,-102.5 "/>
<text text-anchor="start" x="5078.5" y="-87.3" font-family="Times,serif" font-size="14.00">emit_from_table</text>
<text text-anchor="start" x="5078.5" y="-72.3" font-family="Times,serif" font-size="14.00">emit_from_array</text>
</g>
<!-- TestBenchmarkProblemsStructure -->
<g id="node28" class="node">
<title>TestBenchmarkProblemsStructure</title>
<polygon fill="lightblue" stroke="black" points="5222.5,-30.5 5222.5,-159.5 5536.5,-159.5 5536.5,-30.5 5222.5,-30.5"/>
<text text-anchor="middle" x="5379.5" y="-144.3" font-family="Times,serif" font-size="14.00">TestBenchmarkProblemsStructure</text>
<polyline fill="none" stroke="black" points="5222.5,-136.5 5536.5,-136.5 "/>
<text text-anchor="start" x="5230.5" y="-121.3" font-family="Times,serif" font-size="14.00">problems</text>
<polyline fill="none" stroke="black" points="5222.5,-113.5 5536.5,-113.5 "/>
<text text-anchor="start" x="5230.5" y="-98.3" font-family="Times,serif" font-size="14.00">setup_method</text>
<text text-anchor="start" x="5230.5" y="-83.3" font-family="Times,serif" font-size="14.00">test_four_mode_series_system_properties</text>
<text text-anchor="start" x="5230.5" y="-68.3" font-family="Times,serif" font-size="14.00">test_three_mode_problem_properties</text>
<text text-anchor="start" x="5230.5" y="-53.3" font-family="Times,serif" font-size="14.00">test_two_mode_opposite_directions</text>
<text text-anchor="start" x="5230.5" y="-38.3" font-family="Times,serif" font-size="14.00">test_nonlinear_oscillator</text>
</g>
<!-- TestBenchmarkProblemsBehavior -->
<g id="node29" class="node">
<title>TestBenchmarkProblemsBehavior</title>
<polygon fill="lightblue" stroke="black" points="5555,-30.5 5555,-159.5 5814,-159.5 5814,-30.5 5555,-30.5"/>
<text text-anchor="middle" x="5684.5" y="-144.3" font-family="Times,serif" font-size="14.00">TestBenchmarkProblemsBehavior</text>
<polyline fill="none" stroke="black" points="5555,-136.5 5814,-136.5 "/>
<text text-anchor="start" x="5563" y="-121.3" font-family="Times,serif" font-size="14.00">problems</text>
<polyline fill="none" stroke="black" points="5555,-113.5 5814,-113.5 "/>
<text text-anchor="start" x="5563" y="-98.3" font-family="Times,serif" font-size="14.00">setup_method</text>
<text text-anchor="start" x="5563" y="-83.3" font-family="Times,serif" font-size="14.00">test_four_mode_series_symmetry</text>
<text text-anchor="start" x="5563" y="-68.3" font-family="Times,serif" font-size="14.00">test_failure_regions</text>
<text text-anchor="start" x="5563" y="-53.3" font-family="Times,serif" font-size="14.00">test_gradient_smoothness</text>
<text text-anchor="start" x="5563" y="-38.3" font-family="Times,serif" font-size="14.00">test_monotonicity_properties</text>
</g>
<!-- TestHeatTransferProblem -->
<g id="node30" class="node">
<title>TestHeatTransferProblem</title>
<polygon fill="lightblue" stroke="black" points="5832,-42 5832,-148 6069,-148 6069,-42 5832,-42"/>
<text text-anchor="middle" x="5950.5" y="-132.8" font-family="Times,serif" font-size="14.00">TestHeatTransferProblem</text>
<polyline fill="none" stroke="black" points="5832,-125 6069,-125 "/>
<text text-anchor="start" x="5840" y="-109.8" font-family="Times,serif" font-size="14.00">test_initialization_default</text>
<text text-anchor="start" x="5840" y="-94.8" font-family="Times,serif" font-size="14.00">test_initialization_custom</text>
<text text-anchor="start" x="5840" y="-79.8" font-family="Times,serif" font-size="14.00">test_kl_expansion_setup</text>
<text text-anchor="start" x="5840" y="-64.8" font-family="Times,serif" font-size="14.00">test_limit_state_function</text>
<text text-anchor="start" x="5840" y="-49.8" font-family="Times,serif" font-size="14.00">test_temperature_computation</text>
</g>
<!-- TestBenchmarkComparison -->
<g id="node31" class="node">
<title>TestBenchmarkComparison</title>
<polygon fill="lightblue" stroke="black" points="6087,-64.5 6087,-125.5 6300,-125.5 6300,-64.5 6087,-64.5"/>
<text text-anchor="middle" x="6193.5" y="-110.3" font-family="Times,serif" font-size="14.00">TestBenchmarkComparison</text>
<polyline fill="none" stroke="black" points="6087,-102.5 6300,-102.5 "/>
<text text-anchor="start" x="6095" y="-87.3" font-family="Times,serif" font-size="14.00">test_relative_difficulty</text>
<text text-anchor="start" x="6095" y="-72.3" font-family="Times,serif" font-size="14.00">test_dimension_scaling</text>
</g>
<!-- TestBenchmarkRobustness -->
<g id="node32" class="node">
<title>TestBenchmarkRobustness</title>
<polygon fill="lightblue" stroke="black" points="6318.5,-57 6318.5,-133 6552.5,-133 6552.5,-57 6318.5,-57"/>
<text text-anchor="middle" x="6435.5" y="-117.8" font-family="Times,serif" font-size="14.00">TestBenchmarkRobustness</text>
<polyline fill="none" stroke="black" points="6318.5,-110 6552.5,-110 "/>
<text text-anchor="start" x="6326.5" y="-94.8" font-family="Times,serif" font-size="14.00">test_handle_edge_inputs</text>
<text text-anchor="start" x="6326.5" y="-79.8" font-family="Times,serif" font-size="14.00">test_vectorization_consistency</text>
<text text-anchor="start" x="6326.5" y="-64.8" font-family="Times,serif" font-size="14.00">test_numerical_stability</text>
</g>
<!-- TestVonMisesFisherSampler -->
<g id="node33" class="node">
<title>TestVonMisesFisherSampler</title>
<polygon fill="lightblue" stroke="black" points="6571,-42 6571,-148 6808,-148 6808,-42 6571,-42"/>
<text text-anchor="middle" x="6689.5" y="-132.8" font-family="Times,serif" font-size="14.00">TestVonMisesFisherSampler</text>
<polyline fill="none" stroke="black" points="6571,-125 6808,-125 "/>
<text text-anchor="start" x="6579" y="-109.8" font-family="Times,serif" font-size="14.00">test_sample_shape</text>
<text text-anchor="start" x="6579" y="-94.8" font-family="Times,serif" font-size="14.00">test_samples_are_unit_vectors</text>
<text text-anchor="start" x="6579" y="-79.8" font-family="Times,serif" font-size="14.00">test_zero_kappa_uniform</text>
<text text-anchor="start" x="6579" y="-64.8" font-family="Times,serif" font-size="14.00">test_high_kappa_concentration</text>
<text text-anchor="start" x="6579" y="-49.8" font-family="Times,serif" font-size="14.00">test_circular_vmf</text>
</g>
<!-- TestNakagamiDistribution -->
<g id="node34" class="node">
<title>TestNakagamiDistribution</title>
<polygon fill="lightblue" stroke="black" points="6826.5,-42 6826.5,-148 7084.5,-148 7084.5,-42 6826.5,-42"/>
<text text-anchor="middle" x="6955.5" y="-132.8" font-family="Times,serif" font-size="14.00">TestNakagamiDistribution</text>
<polyline fill="none" stroke="black" points="6826.5,-125 7084.5,-125 "/>
<text text-anchor="start" x="6834.5" y="-109.8" font-family="Times,serif" font-size="14.00">test_pdf_positive</text>
<text text-anchor="start" x="6834.5" y="-94.8" font-family="Times,serif" font-size="14.00">test_pdf_zero_at_zero</text>
<text text-anchor="start" x="6834.5" y="-79.8" font-family="Times,serif" font-size="14.00">test_sample_shape</text>
<text text-anchor="start" x="6834.5" y="-64.8" font-family="Times,serif" font-size="14.00">test_sample_mean_approximation</text>
<text text-anchor="start" x="6834.5" y="-49.8" font-family="Times,serif" font-size="14.00">test_cdf_bounds</text>
</g>
<!-- TestInverseNakagamiDistribution -->
<g id="node35" class="node">
<title>TestInverseNakagamiDistribution</title>
<polygon fill="lightblue" stroke="black" points="7102.5,-57 7102.5,-133 7360.5,-133 7360.5,-57 7102.5,-57"/>
<text text-anchor="middle" x="7231.5" y="-117.8" font-family="Times,serif" font-size="14.00">TestInverseNakagamiDistribution</text>
<polyline fill="none" stroke="black" points="7102.5,-110 7360.5,-110 "/>
<text text-anchor="start" x="7110.5" y="-94.8" font-family="Times,serif" font-size="14.00">test_pdf_positive</text>
<text text-anchor="start" x="7110.5" y="-79.8" font-family="Times,serif" font-size="14.00">test_sample_positive</text>
<text text-anchor="start" x="7110.5" y="-64.8" font-family="Times,serif" font-size="14.00">test_heavy_tail_property</text>
</g>
<!-- TestvMFNMDistribution -->
<g id="node36" class="node">
<title>TestvMFNMDistribution</title>
<polygon fill="lightblue" stroke="black" points="7378.5,-42 7378.5,-148 7600.5,-148 7600.5,-42 7378.5,-42"/>
<text text-anchor="middle" x="7489.5" y="-132.8" font-family="Times,serif" font-size="14.00">TestvMFNMDistribution</text>
<polyline fill="none" stroke="black" points="7378.5,-125 7600.5,-125 "/>
<text text-anchor="start" x="7386.5" y="-109.8" font-family="Times,serif" font-size="14.00">simple_params_2d</text>
<text text-anchor="start" x="7386.5" y="-94.8" font-family="Times,serif" font-size="14.00">test_initialization</text>
<text text-anchor="start" x="7386.5" y="-79.8" font-family="Times,serif" font-size="14.00">test_pdf_positive</text>
<text text-anchor="start" x="7386.5" y="-64.8" font-family="Times,serif" font-size="14.00">test_sample_shape</text>
<text text-anchor="start" x="7386.5" y="-49.8" font-family="Times,serif" font-size="14.00">test_sample_pdf_consistency</text>
</g>
<!-- TestIntegration -->
<g id="node37" class="node">
<title>TestIntegration</title>
<polygon fill="lightblue" stroke="black" points="7619,-64.5 7619,-125.5 7888,-125.5 7888,-64.5 7619,-64.5"/>
<text text-anchor="middle" x="7753.5" y="-110.3" font-family="Times,serif" font-size="14.00">TestIntegration</text>
<polyline fill="none" stroke="black" points="7619,-102.5 7888,-102.5 "/>
<text text-anchor="start" x="7627" y="-87.3" font-family="Times,serif" font-size="14.00">test_vmfnm_mixture_normalization</text>
<text text-anchor="start" x="7627" y="-72.3" font-family="Times,serif" font-size="14.00">test_vmfnm_sampling_consistency</text>
</g>
<!-- TestEndToEndWorkflow -->
<g id="node38" class="node">
<title>TestEndToEndWorkflow</title>
<polygon fill="lightblue" stroke="black" points="7906.5,-49.5 7906.5,-140.5 8226.5,-140.5 8226.5,-49.5 7906.5,-49.5"/>
<text text-anchor="middle" x="8066.5" y="-125.3" font-family="Times,serif" font-size="14.00">TestEndToEndWorkflow</text>
<polyline fill="none" stroke="black" points="7906.5,-117.5 8226.5,-117.5 "/>
<text text-anchor="start" x="7914.5" y="-102.3" font-family="Times,serif" font-size="14.00">test_complete_workflow_with_benchmarks</text>
<text text-anchor="start" x="7914.5" y="-87.3" font-family="Times,serif" font-size="14.00">test_workflow_with_custom_limit_state</text>
<text text-anchor="start" x="7914.5" y="-72.3" font-family="Times,serif" font-size="14.00">custom_limit_state</text>
<text text-anchor="start" x="7914.5" y="-57.3" font-family="Times,serif" font-size="14.00">test_multiple_runs_consistency</text>
</g>
<!-- TestKnownFailureProbabilities -->
<g id="node39" class="node">
<title>TestKnownFailureProbabilities</title>
<polygon fill="lightblue" stroke="black" points="8244.5,-49.5 8244.5,-140.5 8480.5,-140.5 8480.5,-49.5 8244.5,-49.5"/>
<text text-anchor="middle" x="8362.5" y="-125.3" font-family="Times,serif" font-size="14.00">TestKnownFailureProbabilities</text>
<polyline fill="none" stroke="black" points="8244.5,-117.5 8480.5,-117.5 "/>
<text text-anchor="start" x="8252.5" y="-102.3" font-family="Times,serif" font-size="14.00">test_simple_sphere_problem</text>
<text text-anchor="start" x="8252.5" y="-87.3" font-family="Times,serif" font-size="14.00">sphere_limit_state</text>
<text text-anchor="start" x="8252.5" y="-72.3" font-family="Times,serif" font-size="14.00">test_linear_limit_state</text>
<text text-anchor="start" x="8252.5" y="-57.3" font-family="Times,serif" font-size="14.00">linear_limit_state</text>
</g>
<!-- TestPerformanceRegression -->
<g id="node40" class="node">
<title>TestPerformanceRegression</title>
<polygon fill="lightblue" stroke="black" points="8499,-57 8499,-133 8768,-133 8768,-57 8499,-57"/>
<text text-anchor="middle" x="8633.5" y="-117.8" font-family="Times,serif" font-size="14.00">TestPerformanceRegression</text>
<polyline fill="none" stroke="black" points="8499,-110 8768,-110 "/>
<text text-anchor="start" x="8507" y="-94.8" font-family="Times,serif" font-size="14.00">test_execution_time_reasonable</text>
<text text-anchor="start" x="8507" y="-79.8" font-family="Times,serif" font-size="14.00">test_memory_usage_scales_linearly</text>
<text text-anchor="start" x="8507" y="-64.8" font-family="Times,serif" font-size="14.00">simple_limit_state</text>
</g>
<!-- TestHighDimensionalProblems -->
<g id="node41" class="node">
<title>TestHighDimensionalProblems</title>
<polygon fill="lightblue" stroke="black" points="8786,-49.5 8786,-140.5 9023,-140.5 9023,-49.5 8786,-49.5"/>
<text text-anchor="middle" x="8904.5" y="-125.3" font-family="Times,serif" font-size="14.00">TestHighDimensionalProblems</text>
<polyline fill="none" stroke="black" points="8786,-117.5 9023,-117.5 "/>
<text text-anchor="start" x="8794" y="-102.3" font-family="Times,serif" font-size="14.00">test_dimension_10</text>
<text text-anchor="start" x="8794" y="-87.3" font-family="Times,serif" font-size="14.00">high_dim_limit_state</text>
<text text-anchor="start" x="8794" y="-72.3" font-family="Times,serif" font-size="14.00">test_dimension_50</text>
<text text-anchor="start" x="8794" y="-57.3" font-family="Times,serif" font-size="14.00">very_high_dim_limit_state</text>
</g>
<!-- TestWithPerformanceEvaluator -->
<g id="node42" class="node">
<title>TestWithPerformanceEvaluator</title>
<polygon fill="lightblue" stroke="black" points="9041,-64.5 9041,-125.5 9282,-125.5 9282,-64.5 9041,-64.5"/>
<text text-anchor="middle" x="9161.5" y="-110.3" font-family="Times,serif" font-size="14.00">TestWithPerformanceEvaluator</text>
<polyline fill="none" stroke="black" points="9041,-102.5 9282,-102.5 "/>
<text text-anchor="start" x="9049" y="-87.3" font-family="Times,serif" font-size="14.00">test_performance_comparison</text>
<text text-anchor="start" x="9049" y="-72.3" font-family="Times,serif" font-size="14.00">test_compute_metrics</text>
</g>
<!-- TestEdgeCases -->
<g id="node43" class="node">
<title>TestEdgeCases</title>
<polygon fill="lightblue" stroke="black" points="9300,-42 9300,-148 9551,-148 9551,-42 9300,-42"/>
<text text-anchor="middle" x="9425.5" y="-132.8" font-family="Times,serif" font-size="14.00">TestEdgeCases</text>
<polyline fill="none" stroke="black" points="9300,-125 9551,-125 "/>
<text text-anchor="start" x="9308" y="-109.8" font-family="Times,serif" font-size="14.00">test_single_sample_per_iteration</text>
<text text-anchor="start" x="9308" y="-94.8" font-family="Times,serif" font-size="14.00">simple_limit_state</text>
<text text-anchor="start" x="9308" y="-79.8" font-family="Times,serif" font-size="14.00">test_single_iteration</text>
<text text-anchor="start" x="9308" y="-64.8" font-family="Times,serif" font-size="14.00">test_very_rare_event</text>
<text text-anchor="start" x="9308" y="-49.8" font-family="Times,serif" font-size="14.00">rare_event_limit_state</text>
</g>
<!-- TestSafeICEInitialization -->
<g id="node44" class="node">
<title>TestSafeICEInitialization</title>
<polygon fill="lightblue" stroke="black" points="9569.5,-49.5 9569.5,-140.5 9895.5,-140.5 9895.5,-49.5 9569.5,-49.5"/>
<text text-anchor="middle" x="9732.5" y="-125.3" font-family="Times,serif" font-size="14.00">TestSafeICEInitialization</text>
<polyline fill="none" stroke="black" points="9569.5,-117.5 9895.5,-117.5 "/>
<text text-anchor="start" x="9577.5" y="-102.3" font-family="Times,serif" font-size="14.00">test_basic_initialization</text>
<text text-anchor="start" x="9577.5" y="-87.3" font-family="Times,serif" font-size="14.00">g</text>
<text text-anchor="start" x="9577.5" y="-72.3" font-family="Times,serif" font-size="14.00">test_initialization_with_custom_parameters</text>
<text text-anchor="start" x="9577.5" y="-57.3" font-family="Times,serif" font-size="14.00">g</text>
</g>
<!-- TestSafeICEExecution -->
<g id="node45" class="node">
<title>TestSafeICEExecution</title>
<polygon fill="lightblue" stroke="black" points="9913.5,-42 9913.5,-148 10155.5,-148 10155.5,-42 9913.5,-42"/>
<text text-anchor="middle" x="10034.5" y="-132.8" font-family="Times,serif" font-size="14.00">TestSafeICEExecution</text>
<polyline fill="none" stroke="black" points="9913.5,-125 10155.5,-125 "/>
<text text-anchor="start" x="9921.5" y="-109.8" font-family="Times,serif" font-size="14.00">test_single_iteration</text>
<text text-anchor="start" x="9921.5" y="-94.8" font-family="Times,serif" font-size="14.00">test_multiple_iterations</text>
<text text-anchor="start" x="9921.5" y="-79.8" font-family="Times,serif" font-size="14.00">test_deterministic_limit_state</text>
<text text-anchor="start" x="9921.5" y="-64.8" font-family="Times,serif" font-size="14.00">g</text>
<text text-anchor="start" x="9921.5" y="-49.8" font-family="Times,serif" font-size="14.00">test_high_dimensional_problem</text>
</g>
<!-- TestSafeICEWithInitialParams -->
<g id="node46" class="node">
<title>TestSafeICEWithInitialParams</title>
<polygon fill="lightblue" stroke="black" points="10174,-64.5 10174,-125.5 10407,-125.5 10407,-64.5 10174,-64.5"/>
<text text-anchor="middle" x="10290.5" y="-110.3" font-family="Times,serif" font-size="14.00">TestSafeICEWithInitialParams</text>
<polyline fill="none" stroke="black" points="10174,-102.5 10407,-102.5 "/>
<text text-anchor="start" x="10182" y="-87.3" font-family="Times,serif" font-size="14.00">test_with_initial_params</text>
<text text-anchor="start" x="10182" y="-72.3" font-family="Times,serif" font-size="14.00">g</text>
</g>
<!-- TestBenchmarkProblems -->
<g id="node47" class="node">
<title>TestBenchmarkProblems</title>
<polygon fill="lightblue" stroke="black" points="10425,-57 10425,-133 10694,-133 10694,-57 10425,-57"/>
<text text-anchor="middle" x="10559.5" y="-117.8" font-family="Times,serif" font-size="14.00">TestBenchmarkProblems</text>
<polyline fill="none" stroke="black" points="10425,-110 10694,-110 "/>
<text text-anchor="start" x="10433" y="-94.8" font-family="Times,serif" font-size="14.00">test_four_mode_series_system</text>
<text text-anchor="start" x="10433" y="-79.8" font-family="Times,serif" font-size="14.00">test_three_mode_problem</text>
<text text-anchor="start" x="10433" y="-64.8" font-family="Times,serif" font-size="14.00">test_two_mode_opposite_directions</text>
</g>
<!-- TestErrorHandling -->
<g id="node48" class="node">
<title>TestErrorHandling</title>
<polygon fill="lightblue" stroke="black" points="10712.5,-42 10712.5,-148 10932.5,-148 10932.5,-42 10712.5,-42"/>
<text text-anchor="middle" x="10822.5" y="-132.8" font-family="Times,serif" font-size="14.00">TestErrorHandling</text>
<polyline fill="none" stroke="black" points="10712.5,-125 10932.5,-125 "/>
<text text-anchor="start" x="10720.5" y="-109.8" font-family="Times,serif" font-size="14.00">test_limit_state_returns_nan</text>
<text text-anchor="start" x="10720.5" y="-94.8" font-family="Times,serif" font-size="14.00">g</text>
<text text-anchor="start" x="10720.5" y="-79.8" font-family="Times,serif" font-size="14.00">test_limit_state_returns_inf</text>
<text text-anchor="start" x="10720.5" y="-64.8" font-family="Times,serif" font-size="14.00">g</text>
<text text-anchor="start" x="10720.5" y="-49.8" font-family="Times,serif" font-size="14.00">test_all_samples_fail</text>
</g>
<!-- TestConvergence -->
<g id="node49" class="node">
<title>TestConvergence</title>
<polygon fill="lightblue" stroke="black" points="10950.5,-49.5 10950.5,-140.5 11114.5,-140.5 11114.5,-49.5 10950.5,-49.5"/>
<text text-anchor="middle" x="11032.5" y="-125.3" font-family="Times,serif" font-size="14.00">TestConvergence</text>
<polyline fill="none" stroke="black" points="10950.5,-117.5 11114.5,-117.5 "/>
<text text-anchor="start" x="10958.5" y="-102.3" font-family="Times,serif" font-size="14.00">test_cv_convergence</text>
<text text-anchor="start" x="10958.5" y="-87.3" font-family="Times,serif" font-size="14.00">g</text>
<text text-anchor="start" x="10958.5" y="-72.3" font-family="Times,serif" font-size="14.00">test_early_stopping</text>
<text text-anchor="start" x="10958.5" y="-57.3" font-family="Times,serif" font-size="14.00">g</text>
</g>
<!-- TestReproducibility -->
<g id="node50" class="node">
<title>TestReproducibility</title>
<polygon fill="lightblue" stroke="black" points="11133,-42 11133,-148 11402,-148 11402,-42 11133,-42"/>
<text text-anchor="middle" x="11267.5" y="-132.8" font-family="Times,serif" font-size="14.00">TestReproducibility</text>
<polyline fill="none" stroke="black" points="11133,-125 11402,-125 "/>
<text text-anchor="start" x="11141" y="-109.8" font-family="Times,serif" font-size="14.00">test_same_seed_same_result</text>
<text text-anchor="start" x="11141" y="-94.8" font-family="Times,serif" font-size="14.00">g</text>
<text text-anchor="start" x="11141" y="-79.8" font-family="Times,serif" font-size="14.00">test_different_seed_different_result</text>
<text text-anchor="start" x="11141" y="-64.8" font-family="Times,serif" font-size="14.00">g</text>
<text text-anchor="start" x="11141" y="-49.8" font-family="Times,serif" font-size="14.00">test_generator_accepted</text>
</g>
</g>
</svg>
