<?xml version="1.0" encoding="UTF-8" standalone="no"?>
<!DOCTYPE svg PUBLIC "-//W3C//DTD SVG 1.1//EN"
 "http://www.w3.org/Graphics/SVG/1.1/DTD/svg11.dtd">
<!-- Generated by graphviz version 2.43.0 (0)
 -->
<!-- Title: G Pages: 1 -->
<svg width="472pt" height="1081pt"
 viewBox="0.00 0.00 472.00 1081.18" xmlns="http://www.w3.org/2000/svg" xmlns:xlink="http://www.w3.org/1999/xlink">
<g id="graph0" class="graph" transform="scale(1 1) rotate(0) translate(4 1077.18)">
<title>G</title><style>.edge>path:hover{stroke-width:8}</style>
<polygon fill="white" stroke="transparent" points="-4,4 -4,-1077.18 468,-1077.18 468,4 -4,4"/>
<g id="clust1" class="cluster">
<title>cluster_safe_ice</title><style>.edge>path:hover{stroke-width:8}</style>
<polygon fill="none" stroke="black" points="8,-8 8,-1065.18 456,-1065.18 456,-8 8,-8"/>
<text text-anchor="middle" x="232" y="-1049.98" font-family="Times,serif" font-size="14.00">safe_ice</text>
</g>
<!-- safe_ice -->
<g id="node1" class="node">
<title>safe_ice</title><style>.edge>path:hover{stroke-width:8}</style>
<ellipse fill="#964040" stroke="black" cx="352" cy="-34" rx="33.61" ry="18"/>
<text text-anchor="middle" x="352" y="-31.5" font-family="Helvetica,sans-Serif" font-size="10.00" fill="#ffffff">safe_ice</text>
</g>
<!-- safe_ice_analysis -->
<g id="node2" class="node">
<title>safe_ice_analysis</title><style>.edge>path:hover{stroke-width:8}</style>
<ellipse fill="#c04040" stroke="black" cx="352" cy="-109.21" rx="42.35" ry="21.43"/>
<text text-anchor="middle" x="352" y="-112.21" font-family="Helvetica,sans-Serif" font-size="10.00" fill="#ffffff">safe_ice.</text>
<text text-anchor="middle" x="352" y="-101.21" font-family="Helvetica,sans-Serif" font-size="10.00" fill="#ffffff">analysis</text>
</g>
<!-- safe_ice_analysis&#45;&gt;safe_ice -->
<g id="edge1" class="edge">
<title>safe_ice_analysis&#45;&gt;safe_ice</title><style>.edge>path:hover{stroke-width:8}</style>
<path fill="none" stroke="black" d="M352,-87.82C352,-79.97 352,-70.86 352,-62.45"/>
<polygon fill="#000000" stroke="black" points="355.5,-62.31 352,-52.31 348.5,-62.31 355.5,-62.31"/>
</g>
<!-- safe_ice_analysis_performance -->
<g id="node3" class="node">
<title>safe_ice_analysis_performance</title><style>.edge>path:hover{stroke-width:8}</style>
<ellipse fill="#b83d3d" stroke="black" cx="352" cy="-195.42" rx="55.72" ry="28.98"/>
<text text-anchor="middle" x="352" y="-203.92" font-family="Helvetica,sans-Serif" font-size="10.00" fill="#ffffff">safe_ice.</text>
<text text-anchor="middle" x="352" y="-192.92" font-family="Helvetica,sans-Serif" font-size="10.00" fill="#ffffff">analysis.</text>
<text text-anchor="middle" x="352" y="-181.92" font-family="Helvetica,sans-Serif" font-size="10.00" fill="#ffffff">performance</text>
</g>
<!-- safe_ice_analysis_performance&#45;&gt;safe_ice_analysis -->
<g id="edge2" class="edge">
<title>safe_ice_analysis_performance&#45;&gt;safe_ice_analysis</title><style>.edge>path:hover{stroke-width:8}</style>
<path fill="none" stroke="black" d="M352,-166.38C352,-158.17 352,-149.16 352,-140.8"/>
<polygon fill="#000000" stroke="black" points="355.5,-140.67 352,-130.67 348.5,-140.67 355.5,-140.67"/>
</g>
<!-- safe_ice_core -->
<g id="node4" class="node">
<title>safe_ice_core</title><style>.edge>path:hover{stroke-width:8}</style>
<ellipse fill="#dd1818" stroke="black" cx="168" cy="-922.19" rx="47.86" ry="18"/>
<text text-anchor="middle" x="168" y="-919.69" font-family="Helvetica,sans-Serif" font-size="10.00" fill="#ffffff">safe_ice.core</text>
</g>
<!-- safe_ice_core&#45;&gt;safe_ice -->
<g id="edge3" class="edge">
<title>safe_ice_core&#45;&gt;safe_ice</title><style>.edge>path:hover{stroke-width:8}</style>
<path fill="none" stroke="black" d="M212.77,-915.89C270.26,-908.21 365.66,-892.21 391,-868.19 432.03,-829.31 427,-802.74 427,-746.22 427,-746.22 427,-746.22 427,-448.61 427,-288.23 489.32,-229.59 414,-88 406.72,-74.32 394.34,-62.65 382.54,-53.77"/>
<polygon fill="#000000" stroke="black" points="384.32,-50.74 374.14,-47.81 380.27,-56.45 384.32,-50.74"/>
</g>
<!-- safe_ice_core&#45;&gt;safe_ice_analysis_performance -->
<g id="edge4" class="edge">
<title>safe_ice_core&#45;&gt;safe_ice_analysis_performance</title><style>.edge>path:hover{stroke-width:8}</style>
<path fill="none" stroke="black" d="M126.61,-913.16C101.06,-905.92 70.01,-892.51 53,-868.19 21.82,-823.62 43,-800.61 43,-746.22 43,-746.22 43,-746.22 43,-325.4 43,-311.78 208.71,-248.94 297.43,-216.27"/>
<polygon fill="#000000" stroke="black" points="298.89,-219.46 307.07,-212.73 296.48,-212.89 298.89,-219.46"/>
</g>
<!-- safe_ice_distributions_mixture -->
<g id="node8" class="node">
<title>safe_ice_distributions_mixture</title><style>.edge>path:hover{stroke-width:8}</style>
<ellipse fill="#bf2121" stroke="black" cx="219" cy="-745.22" rx="56.64" ry="28.98"/>
<text text-anchor="middle" x="219" y="-753.72" font-family="Helvetica,sans-Serif" font-size="10.00" fill="#ffffff">safe_ice.</text>
<text text-anchor="middle" x="219" y="-742.72" font-family="Helvetica,sans-Serif" font-size="10.00" fill="#ffffff">distributions.</text>
<text text-anchor="middle" x="219" y="-731.72" font-family="Helvetica,sans-Serif" font-size="10.00" fill="#ffffff">mixture</text>
</g>
<!-- safe_ice_core&#45;&gt;safe_ice_distributions_mixture -->
<g id="edge5" class="edge">
<title>safe_ice_core&#45;&gt;safe_ice_distributions_mixture</title><style>.edge>path:hover{stroke-width:8}</style>
<path fill="none" stroke="black" d="M182.69,-904.77C190.66,-894.88 199.91,-881.63 205,-868.19 215.17,-841.33 218.51,-808.95 219.4,-784.31"/>
<polygon fill="#000000" stroke="black" points="222.9,-784.34 219.64,-774.26 215.9,-784.17 222.9,-784.34"/>
</g>
<!-- safe_ice_optimization_penalized_em -->
<g id="node12" class="node">
<title>safe_ice_optimization_penalized_em</title><style>.edge>path:hover{stroke-width:8}</style>
<ellipse fill="#ac2b2b" stroke="black" cx="346" cy="-535.81" rx="60.21" ry="28.98"/>
<text text-anchor="middle" x="346" y="-544.31" font-family="Helvetica,sans-Serif" font-size="10.00" fill="#ffffff">safe_ice.</text>
<text text-anchor="middle" x="346" y="-533.31" font-family="Helvetica,sans-Serif" font-size="10.00" fill="#ffffff">optimization.</text>
<text text-anchor="middle" x="346" y="-522.31" font-family="Helvetica,sans-Serif" font-size="10.00" fill="#ffffff">penalized_em</text>
</g>
<!-- safe_ice_core&#45;&gt;safe_ice_optimization_penalized_em -->
<g id="edge6" class="edge">
<title>safe_ice_core&#45;&gt;safe_ice_optimization_penalized_em</title><style>.edge>path:hover{stroke-width:8}</style>
<path fill="none" stroke="black" d="M213.07,-915.89C267.99,-908.43 356.09,-892.91 377,-868.19 412.13,-826.67 387,-800.61 387,-746.22 387,-746.22 387,-746.22 387,-658.01 387,-628.53 375.98,-597.04 365.37,-573.55"/>
<polygon fill="#000000" stroke="black" points="368.45,-571.89 361.03,-564.33 362.12,-574.86 368.45,-571.89"/>
</g>
<!-- safe_ice_core_parameters -->
<g id="node5" class="node">
<title>safe_ice_core_parameters</title><style>.edge>path:hover{stroke-width:8}</style>
<ellipse fill="#e72222" stroke="black" cx="315" cy="-1005.18" rx="51.74" ry="28.98"/>
<text text-anchor="middle" x="315" y="-1013.68" font-family="Helvetica,sans-Serif" font-size="10.00" fill="#ffffff">safe_ice.</text>
<text text-anchor="middle" x="315" y="-1002.68" font-family="Helvetica,sans-Serif" font-size="10.00" fill="#ffffff">core.</text>
<text text-anchor="middle" x="315" y="-991.68" font-family="Helvetica,sans-Serif" font-size="10.00" fill="#ffffff">parameters</text>
</g>
<!-- safe_ice_core_parameters&#45;&gt;safe_ice_core -->
<g id="edge7" class="edge">
<title>safe_ice_core_parameters&#45;&gt;safe_ice_core</title><style>.edge>path:hover{stroke-width:8}</style>
<path fill="none" stroke="black" d="M279.04,-984.37C255.88,-971.61 225.93,-955.11 202.97,-942.46"/>
<polygon fill="#000000" stroke="black" points="204.36,-939.23 193.91,-937.47 200.98,-945.36 204.36,-939.23"/>
</g>
<!-- safe_ice_core_safe_ice -->
<g id="node6" class="node">
<title>safe_ice_core_safe_ice</title><style>.edge>path:hover{stroke-width:8}</style>
<ellipse fill="#9b2626" stroke="black" cx="280" cy="-326.4" rx="42.35" ry="28.98"/>
<text text-anchor="middle" x="280" y="-334.9" font-family="Helvetica,sans-Serif" font-size="10.00" fill="#ffffff">safe_ice.</text>
<text text-anchor="middle" x="280" y="-323.9" font-family="Helvetica,sans-Serif" font-size="10.00" fill="#ffffff">core.</text>
<text text-anchor="middle" x="280" y="-312.9" font-family="Helvetica,sans-Serif" font-size="10.00" fill="#ffffff">safe_ice</text>
</g>
<!-- safe_ice_core_parameters&#45;&gt;safe_ice_core_safe_ice -->
<g id="edge8" class="edge">
<title>safe_ice_core_parameters&#45;&gt;safe_ice_core_safe_ice</title><style>.edge>path:hover{stroke-width:8}</style>
<path fill="none" stroke="black" d="M348.65,-982.87C387.76,-955.17 447,-902.88 447,-840.2 447,-840.2 447,-840.2 447,-448.61 447,-389.83 378.41,-356.61 329.15,-340.33"/>
<polygon fill="#000000" stroke="black" points="330.17,-336.98 319.58,-337.3 328.05,-343.65 330.17,-336.98"/>
</g>
<!-- safe_ice_core_parameters&#45;&gt;safe_ice_distributions_mixture -->
<g id="edge9" class="edge">
<title>safe_ice_core_parameters&#45;&gt;safe_ice_distributions_mixture</title><style>.edge>path:hover{stroke-width:8}</style>
<path fill="none" stroke="black" d="M298.58,-977.53C282.75,-950.79 259.19,-907.96 245,-868.19 235.26,-840.89 228.6,-808.79 224.46,-784.37"/>
<polygon fill="#000000" stroke="black" points="227.9,-783.72 222.83,-774.41 220.99,-784.85 227.9,-783.72"/>
</g>
<!-- safe_ice_core_parameters&#45;&gt;safe_ice_optimization_penalized_em -->
<g id="edge10" class="edge">
<title>safe_ice_core_parameters&#45;&gt;safe_ice_optimization_penalized_em</title><style>.edge>path:hover{stroke-width:8}</style>
<path fill="none" stroke="black" d="M339.41,-979.62C366.67,-949.48 407,-895.53 407,-840.2 407,-840.2 407,-840.2 407,-658.01 407,-626.26 390.09,-594.35 374.08,-571.24"/>
<polygon fill="#000000" stroke="black" points="376.71,-568.91 368.02,-562.84 371.03,-573 376.71,-568.91"/>
</g>
<!-- safe_ice_core_safe_ice&#45;&gt;safe_ice_analysis_performance -->
<g id="edge11" class="edge">
<title>safe_ice_core_safe_ice&#45;&gt;safe_ice_analysis_performance</title><style>.edge>path:hover{stroke-width:8}</style>
<path fill="none" stroke="black" d="M294.74,-298.99C305.42,-279.86 319.99,-253.76 331.76,-232.68"/>
<polygon fill="#000000" stroke="black" points="334.96,-234.12 336.78,-223.68 328.85,-230.71 334.96,-234.12"/>
</g>
<!-- safe_ice_core_safe_ice&#45;&gt;safe_ice_core -->
<g id="edge12" class="edge">
<title>safe_ice_core_safe_ice&#45;&gt;safe_ice_core</title><style>.edge>path:hover{stroke-width:8}</style>
<path fill="none" stroke="black" d="M238.16,-331.93C175.1,-341.33 63,-369.21 63,-448.61 63,-746.22 63,-746.22 63,-746.22 63,-800.61 43.56,-822.45 73,-868.19 84.32,-885.77 103.61,-898.06 121.87,-906.34"/>
<polygon fill="#000000" stroke="black" points="120.7,-909.65 131.27,-910.32 123.42,-903.2 120.7,-909.65"/>
</g>
<!-- safe_ice_distributions -->
<g id="node7" class="node">
<title>safe_ice_distributions</title><style>.edge>path:hover{stroke-width:8}</style>
<ellipse fill="#c82323" stroke="black" cx="222" cy="-659.01" rx="54.39" ry="21.43"/>
<text text-anchor="middle" x="222" y="-662.01" font-family="Helvetica,sans-Serif" font-size="10.00" fill="#ffffff">safe_ice.</text>
<text text-anchor="middle" x="222" y="-651.01" font-family="Helvetica,sans-Serif" font-size="10.00" fill="#ffffff">distributions</text>
</g>
<!-- safe_ice_distributions&#45;&gt;safe_ice -->
<g id="edge13" class="edge">
<title>safe_ice_distributions&#45;&gt;safe_ice</title><style>.edge>path:hover{stroke-width:8}</style>
<path fill="none" stroke="black" d="M221.18,-637.43C220.29,-613.32 219,-572.17 219,-536.81 219,-536.81 219,-536.81 219,-391.39 219,-349.39 216.87,-337.63 229,-297.41 239.56,-262.39 254.04,-258.61 267,-224.41 289.13,-165.98 270.76,-142.68 301,-88 307.47,-76.3 317.18,-65.31 326.39,-56.4"/>
<polygon fill="#000000" stroke="black" points="328.96,-58.79 333.93,-49.44 324.21,-53.65 328.96,-58.79"/>
</g>
<!-- safe_ice_distributions&#45;&gt;safe_ice_core_safe_ice -->
<g id="edge14" class="edge">
<title>safe_ice_distributions&#45;&gt;safe_ice_core_safe_ice</title><style>.edge>path:hover{stroke-width:8}</style>
<path fill="none" stroke="black" d="M226.65,-637.55C231.68,-613.55 239,-572.51 239,-536.81 239,-536.81 239,-536.81 239,-448.61 239,-418.73 250.31,-386.8 261.05,-363.21"/>
<polygon fill="#000000" stroke="black" points="264.32,-364.5 265.43,-353.97 257.99,-361.51 264.32,-364.5"/>
</g>
<!-- safe_ice_distributions&#45;&gt;safe_ice_optimization_penalized_em -->
<g id="edge15" class="edge">
<title>safe_ice_distributions&#45;&gt;safe_ice_optimization_penalized_em</title><style>.edge>path:hover{stroke-width:8}</style>
<path fill="none" stroke="black" d="M241.38,-639.08C260.35,-620.53 289.64,-591.9 312.41,-569.65"/>
<polygon fill="#000000" stroke="black" points="315.15,-571.86 319.85,-562.37 310.26,-566.85 315.15,-571.86"/>
</g>
<!-- safe_ice_distributions_mixture&#45;&gt;safe_ice_core_safe_ice -->
<g id="edge16" class="edge">
<title>safe_ice_distributions_mixture&#45;&gt;safe_ice_core_safe_ice</title><style>.edge>path:hover{stroke-width:8}</style>
<path fill="none" stroke="black" d="M189.68,-720.31C178.22,-709.33 166.14,-695.38 159,-680.23 144.03,-648.44 149,-636.94 149,-601.8 149,-601.8 149,-601.8 149,-448.61 149,-400.62 196.95,-366.33 234.83,-346.73"/>
<polygon fill="#000000" stroke="black" points="236.81,-349.66 244.2,-342.07 233.69,-343.39 236.81,-349.66"/>
</g>
<!-- safe_ice_distributions_mixture&#45;&gt;safe_ice_distributions -->
<g id="edge17" class="edge">
<title>safe_ice_distributions_mixture&#45;&gt;safe_ice_distributions</title><style>.edge>path:hover{stroke-width:8}</style>
<path fill="none" stroke="black" d="M220,-716.18C220.29,-707.97 220.61,-698.96 220.91,-690.6"/>
<polygon fill="#000000" stroke="black" points="224.41,-690.59 221.27,-680.48 217.42,-690.34 224.41,-690.59"/>
</g>
<!-- safe_ice_distributions_mixture&#45;&gt;safe_ice_optimization_penalized_em -->
<g id="edge18" class="edge">
<title>safe_ice_distributions_mixture&#45;&gt;safe_ice_optimization_penalized_em</title><style>.edge>path:hover{stroke-width:8}</style>
<path fill="none" stroke="black" d="M248.55,-720.24C260.99,-709.06 274.88,-694.97 285,-680.23 307.63,-647.26 324.46,-604.55 334.65,-574.35"/>
<polygon fill="#000000" stroke="black" points="338.05,-575.21 337.85,-564.61 331.4,-573.02 338.05,-575.21"/>
</g>
<!-- safe_ice_distributions_nakagami -->
<g id="node9" class="node">
<title>safe_ice_distributions_nakagami</title><style>.edge>path:hover{stroke-width:8}</style>
<ellipse fill="#e72222" stroke="black" cx="311" cy="-839.2" rx="56.64" ry="28.98"/>
<text text-anchor="middle" x="311" y="-847.7" font-family="Helvetica,sans-Serif" font-size="10.00" fill="#ffffff">safe_ice.</text>
<text text-anchor="middle" x="311" y="-836.7" font-family="Helvetica,sans-Serif" font-size="10.00" fill="#ffffff">distributions.</text>
<text text-anchor="middle" x="311" y="-825.7" font-family="Helvetica,sans-Serif" font-size="10.00" fill="#ffffff">nakagami</text>
</g>
<!-- safe_ice_distributions_nakagami&#45;&gt;safe_ice_core_safe_ice -->
<g id="edge19" class="edge">
<title>safe_ice_distributions_nakagami&#45;&gt;safe_ice_core_safe_ice</title><style>.edge>path:hover{stroke-width:8}</style>
<path fill="none" stroke="black" d="M308.6,-810.06C306.41,-785.31 302.91,-748.33 299,-716.23 290.78,-648.72 283.08,-632.54 277,-564.8 270.14,-488.44 272.33,-469.05 271,-392.39 270.85,-383.63 271.6,-374.27 272.72,-365.46"/>
<polygon fill="#000000" stroke="black" points="276.21,-365.84 274.19,-355.44 269.28,-364.83 276.21,-365.84"/>
</g>
<!-- safe_ice_distributions_nakagami&#45;&gt;safe_ice_distributions -->
<g id="edge20" class="edge">
<title>safe_ice_distributions_nakagami&#45;&gt;safe_ice_distributions</title><style>.edge>path:hover{stroke-width:8}</style>
<path fill="none" stroke="black" d="M309.94,-810.03C307.87,-784.09 301.91,-745.34 285,-716.23 277.9,-704.01 267.21,-693.02 256.65,-684.06"/>
<polygon fill="#000000" stroke="black" points="258.64,-681.17 248.65,-677.63 254.25,-686.62 258.64,-681.17"/>
</g>
<!-- safe_ice_distributions_nakagami&#45;&gt;safe_ice_distributions_mixture -->
<g id="edge21" class="edge">
<title>safe_ice_distributions_nakagami&#45;&gt;safe_ice_distributions_mixture</title><style>.edge>path:hover{stroke-width:8}</style>
<path fill="none" stroke="black" d="M285.86,-813.07C275.21,-802.42 262.67,-789.88 251.34,-778.56"/>
<polygon fill="#000000" stroke="black" points="253.66,-775.92 244.11,-771.32 248.71,-780.87 253.66,-775.92"/>
</g>
<!-- safe_ice_distributions_nakagami&#45;&gt;safe_ice_optimization_penalized_em -->
<g id="edge22" class="edge">
<title>safe_ice_distributions_nakagami&#45;&gt;safe_ice_optimization_penalized_em</title><style>.edge>path:hover{stroke-width:8}</style>
<path fill="none" stroke="black" d="M315.13,-810.19C316.73,-799.01 318.52,-786.01 320,-774.21 328.78,-704.02 337.4,-621.96 342.18,-575.01"/>
<polygon fill="#000000" stroke="black" points="345.67,-575.28 343.2,-564.98 338.71,-574.58 345.67,-575.28"/>
</g>
<!-- safe_ice_distributions_vmf -->
<g id="node10" class="node">
<title>safe_ice_distributions_vmf</title><style>.edge>path:hover{stroke-width:8}</style>
<ellipse fill="#db2f2f" stroke="black" cx="139" cy="-839.2" rx="56.64" ry="28.98"/>
<text text-anchor="middle" x="139" y="-847.7" font-family="Helvetica,sans-Serif" font-size="10.00" fill="#ffffff">safe_ice.</text>
<text text-anchor="middle" x="139" y="-836.7" font-family="Helvetica,sans-Serif" font-size="10.00" fill="#ffffff">distributions.</text>
<text text-anchor="middle" x="139" y="-825.7" font-family="Helvetica,sans-Serif" font-size="10.00" fill="#ffffff">vmf</text>
</g>
<!-- safe_ice_distributions_vmf&#45;&gt;safe_ice_core_safe_ice -->
<g id="edge23" class="edge">
<title>safe_ice_distributions_vmf&#45;&gt;safe_ice_core_safe_ice</title><style>.edge>path:hover{stroke-width:8}</style>
<path fill="none" stroke="black" d="M134.92,-810.19C130.18,-775.15 123,-713.28 123,-660.01 123,-660.01 123,-660.01 123,-448.61 123,-392.99 185.49,-359.31 231.62,-342.02"/>
<polygon fill="#000000" stroke="black" points="232.97,-345.25 241.19,-338.58 230.6,-338.67 232.97,-345.25"/>
</g>
<!-- safe_ice_distributions_vmf&#45;&gt;safe_ice_distributions -->
<g id="edge24" class="edge">
<title>safe_ice_distributions_vmf&#45;&gt;safe_ice_distributions</title><style>.edge>path:hover{stroke-width:8}</style>
<path fill="none" stroke="black" d="M136.42,-810.01C135.34,-784.06 137.09,-745.3 153,-716.23 160.16,-703.14 171.74,-691.93 183.38,-683.04"/>
<polygon fill="#000000" stroke="black" points="185.73,-685.66 191.81,-676.98 181.64,-679.98 185.73,-685.66"/>
</g>
<!-- safe_ice_distributions_vmf&#45;&gt;safe_ice_distributions_mixture -->
<g id="edge25" class="edge">
<title>safe_ice_distributions_vmf&#45;&gt;safe_ice_distributions_mixture</title><style>.edge>path:hover{stroke-width:8}</style>
<path fill="none" stroke="black" d="M161.71,-812.09C170.48,-802 180.63,-790.34 189.92,-779.65"/>
<polygon fill="#000000" stroke="black" points="192.59,-781.92 196.51,-772.08 187.31,-777.33 192.59,-781.92"/>
</g>
<!-- safe_ice_optimization -->
<g id="node11" class="node">
<title>safe_ice_optimization</title><style>.edge>path:hover{stroke-width:8}</style>
<ellipse fill="#cc3333" stroke="black" cx="353" cy="-449.61" rx="55.31" ry="21.43"/>
<text text-anchor="middle" x="353" y="-452.61" font-family="Helvetica,sans-Serif" font-size="10.00" fill="#ffffff">safe_ice.</text>
<text text-anchor="middle" x="353" y="-441.61" font-family="Helvetica,sans-Serif" font-size="10.00" fill="#ffffff">optimization</text>
</g>
<!-- safe_ice_optimization&#45;&gt;safe_ice -->
<g id="edge26" class="edge">
<title>safe_ice_optimization&#45;&gt;safe_ice</title><style>.edge>path:hover{stroke-width:8}</style>
<path fill="none" stroke="black" d="M360.87,-428.31C375.46,-389.46 406.2,-301.58 417,-224.41 420.57,-198.89 419.27,-192.1 417,-166.43 413.88,-131.16 419.08,-119.55 403,-88 396.93,-76.09 387.29,-65.06 378.03,-56.18"/>
<polygon fill="#000000" stroke="black" points="380.17,-53.39 370.41,-49.25 375.46,-58.57 380.17,-53.39"/>
</g>
<!-- safe_ice_optimization&#45;&gt;safe_ice_core_safe_ice -->
<g id="edge27" class="edge">
<title>safe_ice_optimization&#45;&gt;safe_ice_core_safe_ice</title><style>.edge>path:hover{stroke-width:8}</style>
<path fill="none" stroke="black" d="M341.11,-428.86C330.24,-410.82 313.93,-383.74 300.89,-362.09"/>
<polygon fill="#000000" stroke="black" points="303.87,-360.25 295.71,-353.49 297.87,-363.86 303.87,-360.25"/>
</g>
<!-- safe_ice_optimization_penalized_em&#45;&gt;safe_ice_core_safe_ice -->
<g id="edge28" class="edge">
<title>safe_ice_optimization_penalized_em&#45;&gt;safe_ice_core_safe_ice</title><style>.edge>path:hover{stroke-width:8}</style>
<path fill="none" stroke="black" d="M317.08,-510.25C306.3,-499.35 295.19,-485.65 289,-470.82 274.95,-437.14 274.02,-395.13 275.8,-365.31"/>
<polygon fill="#000000" stroke="black" points="279.29,-365.52 276.53,-355.3 272.31,-365.02 279.29,-365.52"/>
</g>
<!-- safe_ice_optimization_penalized_em&#45;&gt;safe_ice_optimization -->
<g id="edge29" class="edge">
<title>safe_ice_optimization_penalized_em&#45;&gt;safe_ice_optimization</title><style>.edge>path:hover{stroke-width:8}</style>
<path fill="none" stroke="black" d="M348.33,-506.77C349.01,-498.56 349.76,-489.55 350.46,-481.19"/>
<polygon fill="#000000" stroke="black" points="353.96,-481.32 351.3,-471.07 346.98,-480.74 353.96,-481.32"/>
</g>
<!-- safe_ice_problems -->
<g id="node13" class="node">
<title>safe_ice_problems</title><style>.edge>path:hover{stroke-width:8}</style>
<ellipse fill="#b83d3d" stroke="black" cx="204" cy="-109.21" rx="43.68" ry="21.43"/>
<text text-anchor="middle" x="204" y="-112.21" font-family="Helvetica,sans-Serif" font-size="10.00" fill="#ffffff">safe_ice.</text>
<text text-anchor="middle" x="204" y="-101.21" font-family="Helvetica,sans-Serif" font-size="10.00" fill="#ffffff">problems</text>
</g>
<!-- safe_ice_problems&#45;&gt;safe_ice -->
<g id="edge30" class="edge">
<title>safe_ice_problems&#45;&gt;safe_ice</title><style>.edge>path:hover{stroke-width:8}</style>
<path fill="none" stroke="black" d="M233.95,-93.4C258.52,-81.24 293.27,-64.06 318.7,-51.47"/>
<polygon fill="#000000" stroke="black" points="320.54,-54.47 327.95,-46.9 317.44,-48.19 320.54,-54.47"/>
</g>
<!-- safe_ice_problems_benchmarks -->
<g id="node14" class="node">
<title>safe_ice_problems_benchmarks</title><style>.edge>path:hover{stroke-width:8}</style>
<ellipse fill="#c24747" stroke="black" cx="204" cy="-195.42" rx="54.39" ry="28.98"/>
<text text-anchor="middle" x="204" y="-203.92" font-family="Helvetica,sans-Serif" font-size="10.00" fill="#ffffff">safe_ice.</text>
<text text-anchor="middle" x="204" y="-192.92" font-family="Helvetica,sans-Serif" font-size="10.00" fill="#ffffff">problems.</text>
<text text-anchor="middle" x="204" y="-181.92" font-family="Helvetica,sans-Serif" font-size="10.00" fill="#ffffff">benchmarks</text>
</g>
<!-- safe_ice_problems_benchmarks&#45;&gt;safe_ice_problems -->
<g id="edge31" class="edge">
<title>safe_ice_problems_benchmarks&#45;&gt;safe_ice_problems</title><style>.edge>path:hover{stroke-width:8}</style>
<path fill="none" stroke="black" d="M204,-166.38C204,-158.17 204,-149.16 204,-140.8"/>
<polygon fill="#000000" stroke="black" points="207.5,-140.67 204,-130.67 200.5,-140.67 207.5,-140.67"/>
</g>
<!-- safe_ice_problems_heat_transfer -->
<g id="node15" class="node">
<title>safe_ice_problems_heat_transfer</title><style>.edge>path:hover{stroke-width:8}</style>
<ellipse fill="#c24747" stroke="black" cx="74" cy="-195.42" rx="57.97" ry="28.98"/>
<text text-anchor="middle" x="74" y="-203.92" font-family="Helvetica,sans-Serif" font-size="10.00" fill="#ffffff">safe_ice.</text>
<text text-anchor="middle" x="74" y="-192.92" font-family="Helvetica,sans-Serif" font-size="10.00" fill="#ffffff">problems.</text>
<text text-anchor="middle" x="74" y="-181.92" font-family="Helvetica,sans-Serif" font-size="10.00" fill="#ffffff">heat_transfer</text>
</g>
<!-- safe_ice_problems_heat_transfer&#45;&gt;safe_ice_problems -->
<g id="edge32" class="edge">
<title>safe_ice_problems_heat_transfer&#45;&gt;safe_ice_problems</title><style>.edge>path:hover{stroke-width:8}</style>
<path fill="none" stroke="black" d="M108.5,-172.07C127.46,-159.79 150.9,-144.61 169.81,-132.36"/>
<polygon fill="#000000" stroke="black" points="171.93,-135.16 178.42,-126.78 168.12,-129.28 171.93,-135.16"/>
</g>
</g>
</svg>
