<?xml version="1.0" encoding="UTF-8" standalone="no"?>
<!DOCTYPE svg PUBLIC "-//W3C//DTD SVG 1.1//EN"
 "http://www.w3.org/Graphics/SVG/1.1/DTD/svg11.dtd">
<!-- Generated by graphviz version 2.43.0 (0)
 -->
<!-- Title: G Pages: 1 -->
<svg width="602pt" height="1138pt"
 viewBox="0.00 0.00 602.00 1138.16" xmlns="http://www.w3.org/2000/svg" xmlns:xlink="http://www.w3.org/1999/xlink">
<g id="graph0" class="graph" transform="scale(1 1) rotate(0) translate(4 1134.16)">
<title>G</title><style>.edge>path:hover{stroke-width:8}</style>
<polygon fill="white" stroke="transparent" points="-4,4 -4,-1134.16 598,-1134.16 598,4 -4,4"/>
<g id="clust1" class="cluster">
<title>cluster_safe_ice</title><style>.edge>path:hover{stroke-width:8}</style>
<polygon fill="none" stroke="black" points="8,-8 8,-1122.16 586,-1122.16 586,-8 8,-8"/>
<text text-anchor="middle" x="297" y="-1106.96" font-family="Times,serif" font-size="14.00">safe_ice</text>
</g>
<!-- safe_ice -->
<g id="node1" class="node">
<title>safe_ice</title><style>.edge>path:hover{stroke-width:8}</style>
<ellipse fill="#a13535" stroke="black" cx="537" cy="-34" rx="33.61" ry="18"/>
<text text-anchor="middle" x="537" y="-31.5" font-family="Helvetica,sans-Serif" font-size="10.00" fill="#ffffff">safe_ice</text>
</g>
<!-- safe_ice_analysis -->
<g id="node2" class="node">
<title>safe_ice_analysis</title><style>.edge>path:hover{stroke-width:8}</style>
<ellipse fill="#b83d3d" stroke="black" cx="462" cy="-109.21" rx="42.35" ry="21.43"/>
<text text-anchor="middle" x="462" y="-112.21" font-family="Helvetica,sans-Serif" font-size="10.00" fill="#ffffff">safe_ice.</text>
<text text-anchor="middle" x="462" y="-101.21" font-family="Helvetica,sans-Serif" font-size="10.00" fill="#ffffff">analysis</text>
</g>
<!-- safe_ice_analysis&#45;&gt;safe_ice -->
<g id="edge1" class="edge">
<title>safe_ice_analysis&#45;&gt;safe_ice</title><style>.edge>path:hover{stroke-width:8}</style>
<path fill="none" stroke="black" d="M480.54,-90.12C490.59,-80.3 503.11,-68.08 513.81,-57.64"/>
<polygon fill="#000000" stroke="black" points="516.5,-59.9 521.21,-50.41 511.61,-54.9 516.5,-59.9"/>
</g>
<!-- safe_ice_analysis_performance -->
<g id="node3" class="node">
<title>safe_ice_analysis_performance</title><style>.edge>path:hover{stroke-width:8}</style>
<ellipse fill="#b83d3d" stroke="black" cx="462" cy="-195.42" rx="55.72" ry="28.98"/>
<text text-anchor="middle" x="462" y="-203.92" font-family="Helvetica,sans-Serif" font-size="10.00" fill="#ffffff">safe_ice.</text>
<text text-anchor="middle" x="462" y="-192.92" font-family="Helvetica,sans-Serif" font-size="10.00" fill="#ffffff">analysis.</text>
<text text-anchor="middle" x="462" y="-181.92" font-family="Helvetica,sans-Serif" font-size="10.00" fill="#ffffff">performance</text>
</g>
<!-- safe_ice_analysis_performance&#45;&gt;safe_ice_analysis -->
<g id="edge2" class="edge">
<title>safe_ice_analysis_performance&#45;&gt;safe_ice_analysis</title><style>.edge>path:hover{stroke-width:8}</style>
<path fill="none" stroke="black" d="M462,-166.38C462,-158.17 462,-149.16 462,-140.8"/>
<polygon fill="#000000" stroke="black" points="465.5,-140.67 462,-130.67 458.5,-140.67 465.5,-140.67"/>
</g>
<!-- safe_ice_analysis_visualization -->
<g id="node4" class="node">
<title>safe_ice_analysis_visualization</title><style>.edge>path:hover{stroke-width:8}</style>
<ellipse fill="#c24747" stroke="black" cx="332" cy="-195.42" rx="55.72" ry="28.98"/>
<text text-anchor="middle" x="332" y="-203.92" font-family="Helvetica,sans-Serif" font-size="10.00" fill="#ffffff">safe_ice.</text>
<text text-anchor="middle" x="332" y="-192.92" font-family="Helvetica,sans-Serif" font-size="10.00" fill="#ffffff">analysis.</text>
<text text-anchor="middle" x="332" y="-181.92" font-family="Helvetica,sans-Serif" font-size="10.00" fill="#ffffff">visualization</text>
</g>
<!-- safe_ice_analysis_visualization&#45;&gt;safe_ice_analysis -->
<g id="edge3" class="edge">
<title>safe_ice_analysis_visualization&#45;&gt;safe_ice_analysis</title><style>.edge>path:hover{stroke-width:8}</style>
<path fill="none" stroke="black" d="M366.16,-172.29C385.34,-159.87 409.18,-144.43 428.29,-132.05"/>
<polygon fill="#000000" stroke="black" points="430.21,-134.98 436.7,-126.6 426.4,-129.1 430.21,-134.98"/>
</g>
<!-- safe_ice_cli -->
<g id="node5" class="node">
<title>safe_ice_cli</title><style>.edge>path:hover{stroke-width:8}</style>
<ellipse fill="#a44646" stroke="black" cx="152" cy="-34" rx="41.59" ry="18"/>
<text text-anchor="middle" x="152" y="-31.5" font-family="Helvetica,sans-Serif" font-size="10.00" fill="#ffffff">safe_ice.cli</text>
</g>
<!-- safe_ice_core -->
<g id="node6" class="node">
<title>safe_ice_core</title><style>.edge>path:hover{stroke-width:8}</style>
<ellipse fill="#ca1616" stroke="black" cx="218" cy="-979.18" rx="47.86" ry="18"/>
<text text-anchor="middle" x="218" y="-976.68" font-family="Helvetica,sans-Serif" font-size="10.00" fill="#ffffff">safe_ice.core</text>
</g>
<!-- safe_ice_core&#45;&gt;safe_ice -->
<g id="edge4" class="edge">
<title>safe_ice_core&#45;&gt;safe_ice</title><style>.edge>path:hover{stroke-width:8}</style>
<path fill="none" stroke="black" d="M199.15,-962.42C188.87,-952.75 176.87,-939.5 170,-925.18 146.7,-876.57 109,-790.36 109,-507.59 109,-507.59 109,-507.59 109,-448.37 109,-406.21 97.72,-388.87 122,-354.39 173.96,-280.6 216.33,-288.79 302,-260.41 350.07,-244.48 493.14,-262.06 527,-224.41 537.59,-212.63 537.91,-111.59 537.42,-62.09"/>
<polygon fill="#000000" stroke="black" points="540.92,-62.05 537.3,-52.09 533.92,-62.13 540.92,-62.05"/>
</g>
<!-- safe_ice_core&#45;&gt;safe_ice_analysis_performance -->
<g id="edge5" class="edge">
<title>safe_ice_core&#45;&gt;safe_ice_analysis_performance</title><style>.edge>path:hover{stroke-width:8}</style>
<path fill="none" stroke="black" d="M189.64,-964.61C173.81,-955.59 155.11,-942.27 144,-925.18 78.11,-823.82 89,-779.68 89,-658.78 89,-658.78 89,-658.78 89,-382.38 89,-357.59 88.26,-307.44 156,-260.41 244.96,-198.65 292.84,-254.07 397,-224.41 401.97,-222.99 407.06,-221.29 412.1,-219.43"/>
<polygon fill="#000000" stroke="black" points="413.63,-222.58 421.67,-215.69 411.08,-216.06 413.63,-222.58"/>
</g>
<!-- safe_ice_distributions_mixture -->
<g id="node12" class="node">
<title>safe_ice_distributions_mixture</title><style>.edge>path:hover{stroke-width:8}</style>
<ellipse fill="#bf2121" stroke="black" cx="361" cy="-802.2" rx="56.64" ry="28.98"/>
<text text-anchor="middle" x="361" y="-810.7" font-family="Helvetica,sans-Serif" font-size="10.00" fill="#ffffff">safe_ice.</text>
<text text-anchor="middle" x="361" y="-799.7" font-family="Helvetica,sans-Serif" font-size="10.00" fill="#ffffff">distributions.</text>
<text text-anchor="middle" x="361" y="-788.7" font-family="Helvetica,sans-Serif" font-size="10.00" fill="#ffffff">mixture</text>
</g>
<!-- safe_ice_core&#45;&gt;safe_ice_distributions_mixture -->
<g id="edge6" class="edge">
<title>safe_ice_core&#45;&gt;safe_ice_distributions_mixture</title><style>.edge>path:hover{stroke-width:8}</style>
<path fill="none" stroke="black" d="M262.43,-972.63C292.47,-966.38 330.31,-953.16 351,-925.18 368.54,-901.45 370,-867.57 367.65,-841.54"/>
<polygon fill="#000000" stroke="black" points="371.09,-840.82 366.5,-831.27 364.14,-841.6 371.09,-840.82"/>
</g>
<!-- safe_ice_optimization_penalized_em -->
<g id="node16" class="node">
<title>safe_ice_optimization_penalized_em</title><style>.edge>path:hover{stroke-width:8}</style>
<ellipse fill="#c11515" stroke="black" cx="483" cy="-592.79" rx="60.21" ry="28.98"/>
<text text-anchor="middle" x="483" y="-601.29" font-family="Helvetica,sans-Serif" font-size="10.00" fill="#ffffff">safe_ice.</text>
<text text-anchor="middle" x="483" y="-590.29" font-family="Helvetica,sans-Serif" font-size="10.00" fill="#ffffff">optimization.</text>
<text text-anchor="middle" x="483" y="-579.29" font-family="Helvetica,sans-Serif" font-size="10.00" fill="#ffffff">penalized_em</text>
</g>
<!-- safe_ice_core&#45;&gt;safe_ice_optimization_penalized_em -->
<g id="edge7" class="edge">
<title>safe_ice_core&#45;&gt;safe_ice_optimization_penalized_em</title><style>.edge>path:hover{stroke-width:8}</style>
<path fill="none" stroke="black" d="M265.45,-976.77C342.38,-973.42 489.15,-962.23 523,-925.18 559.69,-885.02 533,-857.59 533,-803.2 533,-803.2 533,-803.2 533,-715 533,-684.65 519.44,-653.05 506.45,-629.72"/>
<polygon fill="#000000" stroke="black" points="509.37,-627.79 501.33,-620.89 503.32,-631.3 509.37,-627.79"/>
</g>
<!-- safe_ice_core_adaptive_safe_ice -->
<g id="node7" class="node">
<title>safe_ice_core_adaptive_safe_ice</title><style>.edge>path:hover{stroke-width:8}</style>
<ellipse fill="#a83838" stroke="black" cx="423" cy="-289.4" rx="74.49" ry="28.98"/>
<text text-anchor="middle" x="423" y="-297.9" font-family="Helvetica,sans-Serif" font-size="10.00" fill="#ffffff">safe_ice.</text>
<text text-anchor="middle" x="423" y="-286.9" font-family="Helvetica,sans-Serif" font-size="10.00" fill="#ffffff">core.</text>
<text text-anchor="middle" x="423" y="-275.9" font-family="Helvetica,sans-Serif" font-size="10.00" fill="#ffffff">adaptive_safe_ice</text>
</g>
<!-- safe_ice_core_adaptive_safe_ice&#45;&gt;safe_ice_core -->
<g id="edge8" class="edge">
<title>safe_ice_core_adaptive_safe_ice&#45;&gt;safe_ice_core</title><style>.edge>path:hover{stroke-width:8}</style>
<path fill="none" stroke="black" d="M348.76,-291.37C294.79,-296 223.49,-310.85 178,-354.39 146.42,-384.62 149,-404.66 149,-448.37 149,-658.78 149,-658.78 149,-658.78 149,-718.65 169.89,-868.44 189,-925.18 192.15,-934.52 196.89,-944.15 201.64,-952.59"/>
<polygon fill="#000000" stroke="black" points="198.63,-954.37 206.71,-961.22 204.66,-950.82 198.63,-954.37"/>
</g>
<!-- safe_ice_core_parameters -->
<g id="node8" class="node">
<title>safe_ice_core_parameters</title><style>.edge>path:hover{stroke-width:8}</style>
<ellipse fill="#f91010" stroke="black" cx="218" cy="-1062.17" rx="51.74" ry="28.98"/>
<text text-anchor="middle" x="218" y="-1070.67" font-family="Helvetica,sans-Serif" font-size="10.00" fill="#ffffff">safe_ice.</text>
<text text-anchor="middle" x="218" y="-1059.67" font-family="Helvetica,sans-Serif" font-size="10.00" fill="#ffffff">core.</text>
<text text-anchor="middle" x="218" y="-1048.67" font-family="Helvetica,sans-Serif" font-size="10.00" fill="#ffffff">parameters</text>
</g>
<!-- safe_ice_core_parameters&#45;&gt;safe_ice_core -->
<g id="edge9" class="edge">
<title>safe_ice_core_parameters&#45;&gt;safe_ice_core</title><style>.edge>path:hover{stroke-width:8}</style>
<path fill="none" stroke="black" d="M218,-1032.84C218,-1024.59 218,-1015.6 218,-1007.43"/>
<polygon fill="#000000" stroke="black" points="221.5,-1007.27 218,-997.27 214.5,-1007.27 221.5,-1007.27"/>
</g>
<!-- safe_ice_core_parameters&#45;&gt;safe_ice_core_adaptive_safe_ice -->
<g id="edge10" class="edge">
<title>safe_ice_core_parameters&#45;&gt;safe_ice_core_adaptive_safe_ice</title><style>.edge>path:hover{stroke-width:8}</style>
<path fill="none" stroke="black" d="M191.48,-1037.23C180.56,-1026.05 168.69,-1011.96 161,-997.18 145.82,-968.01 148.39,-957.76 144,-925.18 119.21,-741.12 129,-693.3 129,-507.59 129,-507.59 129,-507.59 129,-448.37 129,-406 115.91,-385.2 145,-354.39 171.63,-326.19 269.74,-308.54 341.9,-299.09"/>
<polygon fill="#000000" stroke="black" points="342.42,-302.55 351.9,-297.81 341.53,-295.61 342.42,-302.55"/>
</g>
<!-- safe_ice_core_safe_ice -->
<g id="node9" class="node">
<title>safe_ice_core_safe_ice</title><style>.edge>path:hover{stroke-width:8}</style>
<ellipse fill="#9b2626" stroke="black" cx="229" cy="-383.38" rx="42.35" ry="28.98"/>
<text text-anchor="middle" x="229" y="-391.88" font-family="Helvetica,sans-Serif" font-size="10.00" fill="#ffffff">safe_ice.</text>
<text text-anchor="middle" x="229" y="-380.88" font-family="Helvetica,sans-Serif" font-size="10.00" fill="#ffffff">core.</text>
<text text-anchor="middle" x="229" y="-369.88" font-family="Helvetica,sans-Serif" font-size="10.00" fill="#ffffff">safe_ice</text>
</g>
<!-- safe_ice_core_parameters&#45;&gt;safe_ice_core_safe_ice -->
<g id="edge11" class="edge">
<title>safe_ice_core_parameters&#45;&gt;safe_ice_core_safe_ice</title><style>.edge>path:hover{stroke-width:8}</style>
<path fill="none" stroke="black" d="M189.51,-1037.69C178.37,-1026.69 166.88,-1012.61 161,-997.18 155.31,-982.22 160.79,-977.17 161,-961.18 162.78,-826.74 169,-793.23 169,-658.78 169,-658.78 169,-658.78 169,-505.59 169,-473.32 186.29,-440.76 202.31,-417.53"/>
<polygon fill="#000000" stroke="black" points="205.37,-419.27 208.35,-409.1 199.68,-415.19 205.37,-419.27"/>
</g>
<!-- safe_ice_core_safe_ice_optimized -->
<g id="node10" class="node">
<title>safe_ice_core_safe_ice_optimized</title><style>.edge>path:hover{stroke-width:8}</style>
<ellipse fill="#a32828" stroke="black" cx="425" cy="-383.38" rx="78.48" ry="28.98"/>
<text text-anchor="middle" x="425" y="-391.88" font-family="Helvetica,sans-Serif" font-size="10.00" fill="#ffffff">safe_ice.</text>
<text text-anchor="middle" x="425" y="-380.88" font-family="Helvetica,sans-Serif" font-size="10.00" fill="#ffffff">core.</text>
<text text-anchor="middle" x="425" y="-369.88" font-family="Helvetica,sans-Serif" font-size="10.00" fill="#ffffff">safe_ice_optimized</text>
</g>
<!-- safe_ice_core_parameters&#45;&gt;safe_ice_core_safe_ice_optimized -->
<g id="edge12" class="edge">
<title>safe_ice_core_parameters&#45;&gt;safe_ice_core_safe_ice_optimized</title><style>.edge>path:hover{stroke-width:8}</style>
<path fill="none" stroke="black" d="M268.34,-1055.54C343.14,-1046.34 478.99,-1026.16 518,-997.18 558.71,-966.93 573,-947.9 573,-897.18 573,-897.18 573,-897.18 573,-715 573,-612.29 595.88,-575.7 547,-485.37 530.83,-455.5 501.86,-430.94 476.2,-413.52"/>
<polygon fill="#000000" stroke="black" points="477.93,-410.47 467.65,-407.89 474.08,-416.32 477.93,-410.47"/>
</g>
<!-- safe_ice_core_parameters&#45;&gt;safe_ice_distributions_mixture -->
<g id="edge13" class="edge">
<title>safe_ice_core_parameters&#45;&gt;safe_ice_distributions_mixture</title><style>.edge>path:hover{stroke-width:8}</style>
<path fill="none" stroke="black" d="M253.21,-1040.65C288.77,-1017.67 341.54,-976.79 364,-925.18 375.46,-898.83 373.94,-866.17 369.97,-841.27"/>
<polygon fill="#000000" stroke="black" points="373.36,-840.35 368.15,-831.12 366.47,-841.58 373.36,-840.35"/>
</g>
<!-- safe_ice_core_parameters&#45;&gt;safe_ice_optimization_penalized_em -->
<g id="edge14" class="edge">
<title>safe_ice_core_parameters&#45;&gt;safe_ice_optimization_penalized_em</title><style>.edge>path:hover{stroke-width:8}</style>
<path fill="none" stroke="black" d="M269.61,-1058.91C363.58,-1051.74 553,-1021.84 553,-897.18 553,-897.18 553,-897.18 553,-715 553,-681.96 533.25,-649.82 514.74,-626.95"/>
<polygon fill="#000000" stroke="black" points="517.39,-624.67 508.27,-619.26 512.03,-629.17 517.39,-624.67"/>
</g>
<!-- safe_ice_core_safe_ice&#45;&gt;safe_ice_analysis_performance -->
<g id="edge15" class="edge">
<title>safe_ice_core_safe_ice&#45;&gt;safe_ice_analysis_performance</title><style>.edge>path:hover{stroke-width:8}</style>
<path fill="none" stroke="black" d="M244.25,-356.07C260.96,-329.12 289.96,-287.47 324,-260.41 331.47,-254.47 374.52,-234.83 410.58,-218.86"/>
<polygon fill="#000000" stroke="black" points="412.31,-221.92 420.05,-214.67 409.48,-215.51 412.31,-221.92"/>
</g>
<!-- safe_ice_core_safe_ice&#45;&gt;safe_ice_core -->
<g id="edge16" class="edge">
<title>safe_ice_core_safe_ice&#45;&gt;safe_ice_core</title><style>.edge>path:hover{stroke-width:8}</style>
<path fill="none" stroke="black" d="M214.78,-410.99C203.29,-435.01 189,-471.68 189,-505.59 189,-803.2 189,-803.2 189,-803.2 189,-857.82 193.67,-871.54 204,-925.18 205.65,-933.72 207.9,-942.92 210.12,-951.21"/>
<polygon fill="#000000" stroke="black" points="206.82,-952.42 212.86,-961.13 213.57,-950.55 206.82,-952.42"/>
</g>
<!-- safe_ice_core_safe_ice_optimized&#45;&gt;safe_ice_core -->
<g id="edge17" class="edge">
<title>safe_ice_core_safe_ice_optimized&#45;&gt;safe_ice_core</title><style>.edge>path:hover{stroke-width:8}</style>
<path fill="none" stroke="black" d="M401.53,-411.13C385.34,-430.65 364.24,-458.32 350,-485.37 266.42,-644.12 249.31,-690.36 219,-867.19 214.16,-895.43 214.6,-928.3 215.83,-950.9"/>
<polygon fill="#000000" stroke="black" points="212.35,-951.34 216.47,-961.1 219.33,-950.9 212.35,-951.34"/>
</g>
<!-- safe_ice_core_safe_ice_optimized&#45;&gt;safe_ice_core_adaptive_safe_ice -->
<g id="edge18" class="edge">
<title>safe_ice_core_safe_ice_optimized&#45;&gt;safe_ice_core_adaptive_safe_ice</title><style>.edge>path:hover{stroke-width:8}</style>
<path fill="none" stroke="black" d="M424.39,-354.29C424.21,-346.25 424.02,-337.35 423.83,-328.8"/>
<polygon fill="#000000" stroke="black" points="427.33,-328.56 423.61,-318.64 420.33,-328.72 427.33,-328.56"/>
</g>
<!-- safe_ice_distributions -->
<g id="node11" class="node">
<title>safe_ice_distributions</title><style>.edge>path:hover{stroke-width:8}</style>
<ellipse fill="#d31717" stroke="black" cx="361" cy="-716" rx="54.39" ry="21.43"/>
<text text-anchor="middle" x="361" y="-719" font-family="Helvetica,sans-Serif" font-size="10.00" fill="#ffffff">safe_ice.</text>
<text text-anchor="middle" x="361" y="-708" font-family="Helvetica,sans-Serif" font-size="10.00" fill="#ffffff">distributions</text>
</g>
<!-- safe_ice_distributions&#45;&gt;safe_ice -->
<g id="edge19" class="edge">
<title>safe_ice_distributions&#45;&gt;safe_ice</title><style>.edge>path:hover{stroke-width:8}</style>
<path fill="none" stroke="black" d="M351.5,-694.67C320.28,-624.55 229.04,-390.06 340,-260.41 399.29,-191.12 483.45,-294.32 542,-224.41 561.99,-200.55 549.69,-108.44 541.92,-62.04"/>
<polygon fill="#000000" stroke="black" points="545.35,-61.35 540.2,-52.09 538.45,-62.54 545.35,-61.35"/>
</g>
<!-- safe_ice_distributions&#45;&gt;safe_ice_core_safe_ice -->
<g id="edge20" class="edge">
<title>safe_ice_distributions&#45;&gt;safe_ice_core_safe_ice</title><style>.edge>path:hover{stroke-width:8}</style>
<path fill="none" stroke="black" d="M336,-696.91C314.61,-680 284.84,-652.75 269,-621.78 251.57,-587.72 238.61,-480.93 232.64,-422.88"/>
<polygon fill="#000000" stroke="black" points="236.1,-422.24 231.61,-412.64 229.13,-422.94 236.1,-422.24"/>
</g>
<!-- safe_ice_distributions&#45;&gt;safe_ice_core_safe_ice_optimized -->
<g id="edge21" class="edge">
<title>safe_ice_distributions&#45;&gt;safe_ice_core_safe_ice_optimized</title><style>.edge>path:hover{stroke-width:8}</style>
<path fill="none" stroke="black" d="M361.1,-694.7C361.72,-654.27 365.27,-561.02 384,-485.37 389.42,-463.48 398.69,-440.07 407.04,-421.31"/>
<polygon fill="#000000" stroke="black" points="410.34,-422.51 411.3,-411.96 403.97,-419.61 410.34,-422.51"/>
</g>
<!-- safe_ice_distributions&#45;&gt;safe_ice_optimization_penalized_em -->
<g id="edge22" class="edge">
<title>safe_ice_distributions&#45;&gt;safe_ice_optimization_penalized_em</title><style>.edge>path:hover{stroke-width:8}</style>
<path fill="none" stroke="black" d="M380.06,-696.06C398.73,-677.52 427.55,-648.88 449.95,-626.63"/>
<polygon fill="#000000" stroke="black" points="452.65,-628.88 457.28,-619.35 447.72,-623.91 452.65,-628.88"/>
</g>
<!-- safe_ice_distributions_mixture&#45;&gt;safe_ice_core_safe_ice -->
<g id="edge23" class="edge">
<title>safe_ice_distributions_mixture&#45;&gt;safe_ice_core_safe_ice</title><style>.edge>path:hover{stroke-width:8}</style>
<path fill="none" stroke="black" d="M322.47,-780.88C283.5,-757.23 229,-714.24 229,-658.78 229,-658.78 229,-658.78 229,-505.59 229,-477.91 229,-446.68 229,-422.85"/>
<polygon fill="#000000" stroke="black" points="232.5,-422.79 229,-412.79 225.5,-422.79 232.5,-422.79"/>
</g>
<!-- safe_ice_distributions_mixture&#45;&gt;safe_ice_distributions -->
<g id="edge24" class="edge">
<title>safe_ice_distributions_mixture&#45;&gt;safe_ice_distributions</title><style>.edge>path:hover{stroke-width:8}</style>
<path fill="none" stroke="black" d="M361,-773.16C361,-764.95 361,-755.94 361,-747.58"/>
<polygon fill="#000000" stroke="black" points="364.5,-747.46 361,-737.46 357.5,-747.46 364.5,-747.46"/>
</g>
<!-- safe_ice_distributions_mixture&#45;&gt;safe_ice_optimization_penalized_em -->
<g id="edge25" class="edge">
<title>safe_ice_distributions_mixture&#45;&gt;safe_ice_optimization_penalized_em</title><style>.edge>path:hover{stroke-width:8}</style>
<path fill="none" stroke="black" d="M389.24,-777.07C401.11,-765.85 414.37,-751.78 424,-737.21 445.87,-704.11 462.11,-661.61 471.96,-631.48"/>
<polygon fill="#000000" stroke="black" points="475.35,-632.36 475.05,-621.77 468.68,-630.24 475.35,-632.36"/>
</g>
<!-- safe_ice_distributions_nakagami -->
<g id="node13" class="node">
<title>safe_ice_distributions_nakagami</title><style>.edge>path:hover{stroke-width:8}</style>
<ellipse fill="#f31616" stroke="black" cx="457" cy="-896.18" rx="56.64" ry="28.98"/>
<text text-anchor="middle" x="457" y="-904.68" font-family="Helvetica,sans-Serif" font-size="10.00" fill="#ffffff">safe_ice.</text>
<text text-anchor="middle" x="457" y="-893.68" font-family="Helvetica,sans-Serif" font-size="10.00" fill="#ffffff">distributions.</text>
<text text-anchor="middle" x="457" y="-882.68" font-family="Helvetica,sans-Serif" font-size="10.00" fill="#ffffff">nakagami</text>
</g>
<!-- safe_ice_distributions_nakagami&#45;&gt;safe_ice_core_safe_ice -->
<g id="edge26" class="edge">
<title>safe_ice_distributions_nakagami&#45;&gt;safe_ice_core_safe_ice</title><style>.edge>path:hover{stroke-width:8}</style>
<path fill="none" stroke="black" d="M454.36,-866.96C451.85,-842.16 447.61,-805.15 442,-773.21 435.81,-737.99 437.7,-727.82 424,-694.78 378.86,-585.98 297.05,-472.24 255.2,-417.59"/>
<polygon fill="#000000" stroke="black" points="257.72,-415.12 248.84,-409.33 252.17,-419.39 257.72,-415.12"/>
</g>
<!-- safe_ice_distributions_nakagami&#45;&gt;safe_ice_core_safe_ice_optimized -->
<g id="edge27" class="edge">
<title>safe_ice_distributions_nakagami&#45;&gt;safe_ice_core_safe_ice_optimized</title><style>.edge>path:hover{stroke-width:8}</style>
<path fill="none" stroke="black" d="M460.98,-866.95C463.81,-842.14 466.39,-805.12 462,-773.21 457.07,-737.35 450.97,-729.28 440,-694.78 429.56,-661.96 420.58,-655.59 414,-621.78 402.41,-562.25 406.74,-545.94 410,-485.37 411.13,-464.47 414.41,-441.35 417.61,-422.52"/>
<polygon fill="#000000" stroke="black" points="421.08,-422.99 419.37,-412.54 414.19,-421.78 421.08,-422.99"/>
</g>
<!-- safe_ice_distributions_nakagami&#45;&gt;safe_ice_distributions -->
<g id="edge28" class="edge">
<title>safe_ice_distributions_nakagami&#45;&gt;safe_ice_distributions</title><style>.edge>path:hover{stroke-width:8}</style>
<path fill="none" stroke="black" d="M455.03,-867.14C452.11,-841.12 444.88,-802.15 427,-773.21 419.3,-760.74 407.91,-749.63 396.75,-740.64"/>
<polygon fill="#000000" stroke="black" points="398.79,-737.79 388.72,-734.48 394.53,-743.34 398.79,-737.79"/>
</g>
<!-- safe_ice_distributions_nakagami&#45;&gt;safe_ice_distributions_mixture -->
<g id="edge29" class="edge">
<title>safe_ice_distributions_nakagami&#45;&gt;safe_ice_distributions_mixture</title><style>.edge>path:hover{stroke-width:8}</style>
<path fill="none" stroke="black" d="M431.02,-870.29C419.71,-859.45 406.31,-846.62 394.28,-835.09"/>
<polygon fill="#000000" stroke="black" points="396.64,-832.5 387,-828.11 391.8,-837.56 396.64,-832.5"/>
</g>
<!-- safe_ice_distributions_nakagami&#45;&gt;safe_ice_optimization_penalized_em -->
<g id="edge30" class="edge">
<title>safe_ice_distributions_nakagami&#45;&gt;safe_ice_optimization_penalized_em</title><style>.edge>path:hover{stroke-width:8}</style>
<path fill="none" stroke="black" d="M470.25,-867.81C474.94,-856.72 479.63,-843.61 482,-831.19 495.2,-761.93 491.21,-679.23 487.1,-631.98"/>
<polygon fill="#000000" stroke="black" points="490.58,-631.53 486.18,-621.89 483.6,-632.17 490.58,-631.53"/>
</g>
<!-- safe_ice_distributions_vmf -->
<g id="node14" class="node">
<title>safe_ice_distributions_vmf</title><style>.edge>path:hover{stroke-width:8}</style>
<ellipse fill="#e72222" stroke="black" cx="285" cy="-896.18" rx="56.64" ry="28.98"/>
<text text-anchor="middle" x="285" y="-904.68" font-family="Helvetica,sans-Serif" font-size="10.00" fill="#ffffff">safe_ice.</text>
<text text-anchor="middle" x="285" y="-893.68" font-family="Helvetica,sans-Serif" font-size="10.00" fill="#ffffff">distributions.</text>
<text text-anchor="middle" x="285" y="-882.68" font-family="Helvetica,sans-Serif" font-size="10.00" fill="#ffffff">vmf</text>
</g>
<!-- safe_ice_distributions_vmf&#45;&gt;safe_ice_core_safe_ice -->
<g id="edge31" class="edge">
<title>safe_ice_distributions_vmf&#45;&gt;safe_ice_core_safe_ice</title><style>.edge>path:hover{stroke-width:8}</style>
<path fill="none" stroke="black" d="M265.82,-868.9C243.31,-835.4 209,-774.84 209,-717 209,-717 209,-717 209,-505.59 209,-477.35 214.35,-445.9 219.52,-422.11"/>
<polygon fill="#000000" stroke="black" points="222.99,-422.62 221.78,-412.09 216.16,-421.07 222.99,-422.62"/>
</g>
<!-- safe_ice_distributions_vmf&#45;&gt;safe_ice_core_safe_ice_optimized -->
<g id="edge32" class="edge">
<title>safe_ice_distributions_vmf&#45;&gt;safe_ice_core_safe_ice_optimized</title><style>.edge>path:hover{stroke-width:8}</style>
<path fill="none" stroke="black" d="M280.03,-866.98C276.4,-842.2 272.79,-805.19 277,-773.21 287.2,-695.68 361.96,-506 371,-485.37 380.61,-463.47 393.11,-439.85 403.67,-420.96"/>
<polygon fill="#000000" stroke="black" points="406.8,-422.53 408.67,-412.1 400.71,-419.08 406.8,-422.53"/>
</g>
<!-- safe_ice_distributions_vmf&#45;&gt;safe_ice_distributions -->
<g id="edge33" class="edge">
<title>safe_ice_distributions_vmf&#45;&gt;safe_ice_distributions</title><style>.edge>path:hover{stroke-width:8}</style>
<path fill="none" stroke="black" d="M281.45,-867.14C279.48,-841.3 279.93,-802.61 295,-773.21 301.63,-760.28 312.65,-749.1 323.8,-740.2"/>
<polygon fill="#000000" stroke="black" points="325.99,-742.93 331.88,-734.13 321.79,-737.33 325.99,-742.93"/>
</g>
<!-- safe_ice_distributions_vmf&#45;&gt;safe_ice_distributions_mixture -->
<g id="edge34" class="edge">
<title>safe_ice_distributions_vmf&#45;&gt;safe_ice_distributions_mixture</title><style>.edge>path:hover{stroke-width:8}</style>
<path fill="none" stroke="black" d="M306.58,-869.07C314.83,-859.08 324.36,-847.55 333.12,-836.94"/>
<polygon fill="#000000" stroke="black" points="335.96,-839 339.63,-829.06 330.57,-834.54 335.96,-839"/>
</g>
<!-- safe_ice_optimization -->
<g id="node15" class="node">
<title>safe_ice_optimization</title><style>.edge>path:hover{stroke-width:8}</style>
<ellipse fill="#e61919" stroke="black" cx="483" cy="-506.59" rx="55.31" ry="21.43"/>
<text text-anchor="middle" x="483" y="-509.59" font-family="Helvetica,sans-Serif" font-size="10.00" fill="#ffffff">safe_ice.</text>
<text text-anchor="middle" x="483" y="-498.59" font-family="Helvetica,sans-Serif" font-size="10.00" fill="#ffffff">optimization</text>
</g>
<!-- safe_ice_optimization&#45;&gt;safe_ice -->
<g id="edge35" class="edge">
<title>safe_ice_optimization&#45;&gt;safe_ice</title><style>.edge>path:hover{stroke-width:8}</style>
<path fill="none" stroke="black" d="M509.43,-487.76C537.24,-466.66 577,-428.72 577,-384.38 577,-384.38 577,-384.38 577,-194.42 577,-146.65 575.68,-133.76 562,-88 559.25,-78.79 555.12,-69.17 551.01,-60.68"/>
<polygon fill="#000000" stroke="black" points="554.09,-59.01 546.45,-51.67 547.85,-62.17 554.09,-59.01"/>
</g>
<!-- safe_ice_optimization&#45;&gt;safe_ice_core_adaptive_safe_ice -->
<g id="edge36" class="edge">
<title>safe_ice_optimization&#45;&gt;safe_ice_core_adaptive_safe_ice</title><style>.edge>path:hover{stroke-width:8}</style>
<path fill="none" stroke="black" d="M494.69,-485.35C510.43,-455.2 534.07,-397.44 512,-354.39 504.38,-339.53 491.52,-327.33 477.91,-317.72"/>
<polygon fill="#000000" stroke="black" points="479.65,-314.68 469.38,-312.07 475.79,-320.51 479.65,-314.68"/>
</g>
<!-- safe_ice_optimization&#45;&gt;safe_ice_core_safe_ice -->
<g id="edge37" class="edge">
<title>safe_ice_optimization&#45;&gt;safe_ice_core_safe_ice</title><style>.edge>path:hover{stroke-width:8}</style>
<path fill="none" stroke="black" d="M449.53,-489.62C404.1,-467.94 322.83,-429.16 272.65,-405.21"/>
<polygon fill="#000000" stroke="black" points="273.89,-401.92 263.35,-400.78 270.87,-408.24 273.89,-401.92"/>
</g>
<!-- safe_ice_optimization&#45;&gt;safe_ice_core_safe_ice_optimized -->
<g id="edge38" class="edge">
<title>safe_ice_optimization&#45;&gt;safe_ice_core_safe_ice_optimized</title><style>.edge>path:hover{stroke-width:8}</style>
<path fill="none" stroke="black" d="M473.42,-485.57C465.07,-468.12 452.74,-442.35 442.61,-421.19"/>
<polygon fill="#000000" stroke="black" points="445.76,-419.65 438.28,-412.14 439.44,-422.67 445.76,-419.65"/>
</g>
<!-- safe_ice_optimization_penalized_em&#45;&gt;safe_ice_core_adaptive_safe_ice -->
<g id="edge39" class="edge">
<title>safe_ice_optimization_penalized_em&#45;&gt;safe_ice_core_adaptive_safe_ice</title><style>.edge>path:hover{stroke-width:8}</style>
<path fill="none" stroke="black" d="M515.59,-568.38C527.87,-557.57 540.45,-543.62 547,-527.8 565.64,-482.81 541.33,-384.49 521,-354.39 510.63,-339.05 495.23,-326.52 479.69,-316.75"/>
<polygon fill="#000000" stroke="black" points="481.45,-313.72 471.07,-311.6 477.86,-319.73 481.45,-313.72"/>
</g>
<!-- safe_ice_optimization_penalized_em&#45;&gt;safe_ice_core_safe_ice -->
<g id="edge40" class="edge">
<title>safe_ice_optimization_penalized_em&#45;&gt;safe_ice_core_safe_ice</title><style>.edge>path:hover{stroke-width:8}</style>
<path fill="none" stroke="black" d="M453.12,-567.39C405.79,-528.74 313.82,-453.65 263.67,-412.69"/>
<polygon fill="#000000" stroke="black" points="265.65,-409.8 255.69,-406.18 261.23,-415.22 265.65,-409.8"/>
</g>
<!-- safe_ice_optimization_penalized_em&#45;&gt;safe_ice_core_safe_ice_optimized -->
<g id="edge41" class="edge">
<title>safe_ice_optimization_penalized_em&#45;&gt;safe_ice_core_safe_ice_optimized</title><style>.edge>path:hover{stroke-width:8}</style>
<path fill="none" stroke="black" d="M450.41,-568.38C438.13,-557.57 425.55,-543.62 419,-527.8 411.43,-509.52 415.56,-458.72 419.79,-422.79"/>
<polygon fill="#000000" stroke="black" points="423.29,-422.98 421.03,-412.63 416.34,-422.13 423.29,-422.98"/>
</g>
<!-- safe_ice_optimization_penalized_em&#45;&gt;safe_ice_optimization -->
<g id="edge42" class="edge">
<title>safe_ice_optimization_penalized_em&#45;&gt;safe_ice_optimization</title><style>.edge>path:hover{stroke-width:8}</style>
<path fill="none" stroke="black" d="M483,-563.75C483,-555.55 483,-546.53 483,-538.17"/>
<polygon fill="#000000" stroke="black" points="486.5,-538.05 483,-528.05 479.5,-538.05 486.5,-538.05"/>
</g>
<!-- safe_ice_problems -->
<g id="node17" class="node">
<title>safe_ice_problems</title><style>.edge>path:hover{stroke-width:8}</style>
<ellipse fill="#c43131" stroke="black" cx="183" cy="-109.21" rx="43.68" ry="21.43"/>
<text text-anchor="middle" x="183" y="-112.21" font-family="Helvetica,sans-Serif" font-size="10.00" fill="#ffffff">safe_ice.</text>
<text text-anchor="middle" x="183" y="-101.21" font-family="Helvetica,sans-Serif" font-size="10.00" fill="#ffffff">problems</text>
</g>
<!-- safe_ice_problems&#45;&gt;safe_ice -->
<g id="edge43" class="edge">
<title>safe_ice_problems&#45;&gt;safe_ice</title><style>.edge>path:hover{stroke-width:8}</style>
<path fill="none" stroke="black" d="M222.58,-100.03C290.19,-86.04 427.28,-57.69 495.91,-43.5"/>
<polygon fill="#000000" stroke="black" points="496.84,-46.88 505.92,-41.43 495.42,-40.03 496.84,-46.88"/>
</g>
<!-- safe_ice_problems&#45;&gt;safe_ice_cli -->
<g id="edge44" class="edge">
<title>safe_ice_problems&#45;&gt;safe_ice_cli</title><style>.edge>path:hover{stroke-width:8}</style>
<path fill="none" stroke="black" d="M174.53,-88.21C171.04,-79.96 166.94,-70.29 163.21,-61.48"/>
<polygon fill="#000000" stroke="black" points="166.32,-59.85 159.2,-52 159.88,-62.58 166.32,-59.85"/>
</g>
<!-- safe_ice_problems_benchmarks -->
<g id="node18" class="node">
<title>safe_ice_problems_benchmarks</title><style>.edge>path:hover{stroke-width:8}</style>
<ellipse fill="#ce3b3b" stroke="black" cx="70" cy="-195.42" rx="54.39" ry="28.98"/>
<text text-anchor="middle" x="70" y="-203.92" font-family="Helvetica,sans-Serif" font-size="10.00" fill="#ffffff">safe_ice.</text>
<text text-anchor="middle" x="70" y="-192.92" font-family="Helvetica,sans-Serif" font-size="10.00" fill="#ffffff">problems.</text>
<text text-anchor="middle" x="70" y="-181.92" font-family="Helvetica,sans-Serif" font-size="10.00" fill="#ffffff">benchmarks</text>
</g>
<!-- safe_ice_problems_benchmarks&#45;&gt;safe_ice_cli -->
<g id="edge45" class="edge">
<title>safe_ice_problems_benchmarks&#45;&gt;safe_ice_cli</title><style>.edge>path:hover{stroke-width:8}</style>
<path fill="none" stroke="black" d="M83.91,-167.37C99.18,-137.69 123.53,-90.35 138.6,-61.06"/>
<polygon fill="#000000" stroke="black" points="141.86,-62.36 143.32,-51.87 135.64,-59.16 141.86,-62.36"/>
</g>
<!-- safe_ice_problems_benchmarks&#45;&gt;safe_ice_problems -->
<g id="edge46" class="edge">
<title>safe_ice_problems_benchmarks&#45;&gt;safe_ice_problems</title><style>.edge>path:hover{stroke-width:8}</style>
<path fill="none" stroke="black" d="M100.88,-171.41C116.65,-159.66 135.79,-145.39 151.63,-133.59"/>
<polygon fill="#000000" stroke="black" points="154.12,-136.1 160.05,-127.32 149.94,-130.49 154.12,-136.1"/>
</g>
<!-- safe_ice_problems_heat_transfer -->
<g id="node19" class="node">
<title>safe_ice_problems_heat_transfer</title><style>.edge>path:hover{stroke-width:8}</style>
<ellipse fill="#c24747" stroke="black" cx="200" cy="-195.42" rx="57.97" ry="28.98"/>
<text text-anchor="middle" x="200" y="-203.92" font-family="Helvetica,sans-Serif" font-size="10.00" fill="#ffffff">safe_ice.</text>
<text text-anchor="middle" x="200" y="-192.92" font-family="Helvetica,sans-Serif" font-size="10.00" fill="#ffffff">problems.</text>
<text text-anchor="middle" x="200" y="-181.92" font-family="Helvetica,sans-Serif" font-size="10.00" fill="#ffffff">heat_transfer</text>
</g>
<!-- safe_ice_problems_heat_transfer&#45;&gt;safe_ice_problems -->
<g id="edge47" class="edge">
<title>safe_ice_problems_heat_transfer&#45;&gt;safe_ice_problems</title><style>.edge>path:hover{stroke-width:8}</style>
<path fill="none" stroke="black" d="M194.34,-166.38C192.65,-158.01 190.79,-148.81 189.08,-140.31"/>
<polygon fill="#000000" stroke="black" points="192.49,-139.52 187.08,-130.41 185.63,-140.91 192.49,-139.52"/>
</g>
<!-- safe_ice_utils -->
<g id="node20" class="node">
<title>safe_ice_utils</title><style>.edge>path:hover{stroke-width:8}</style>
<ellipse fill="#b34c4c" stroke="black" cx="64" cy="-979.18" rx="47.86" ry="18"/>
<text text-anchor="middle" x="64" y="-976.68" font-family="Helvetica,sans-Serif" font-size="10.00" fill="#ffffff">safe_ice.utils</text>
</g>
<!-- safe_ice_utils_performance -->
<g id="node21" class="node">
<title>safe_ice_utils_performance</title><style>.edge>path:hover{stroke-width:8}</style>
<ellipse fill="#c24747" stroke="black" cx="72" cy="-1062.17" rx="55.72" ry="28.98"/>
<text text-anchor="middle" x="72" y="-1070.67" font-family="Helvetica,sans-Serif" font-size="10.00" fill="#ffffff">safe_ice.</text>
<text text-anchor="middle" x="72" y="-1059.67" font-family="Helvetica,sans-Serif" font-size="10.00" fill="#ffffff">utils.</text>
<text text-anchor="middle" x="72" y="-1048.67" font-family="Helvetica,sans-Serif" font-size="10.00" fill="#ffffff">performance</text>
</g>
<!-- safe_ice_utils_performance&#45;&gt;safe_ice_utils -->
<g id="edge48" class="edge">
<title>safe_ice_utils_performance&#45;&gt;safe_ice_utils</title><style>.edge>path:hover{stroke-width:8}</style>
<path fill="none" stroke="black" d="M69.2,-1032.84C68.39,-1024.59 67.5,-1015.6 66.69,-1007.43"/>
<polygon fill="#000000" stroke="black" points="70.15,-1006.88 65.69,-997.27 63.19,-1007.57 70.15,-1006.88"/>
</g>
</g>
</svg>
