<?xml version="1.0" encoding="UTF-8" standalone="no"?>
<!DOCTYPE svg PUBLIC "-//W3C//DTD SVG 1.1//EN"
 "http://www.w3.org/Graphics/SVG/1.1/DTD/svg11.dtd">
<!-- Generated by graphviz version 2.43.0 (0)
 -->
<!-- Title: Modules Pages: 1 -->
<svg width="116pt" height="368pt"
 viewBox="0.00 0.00 116.00 368.00" xmlns="http://www.w3.org/2000/svg" xmlns:xlink="http://www.w3.org/1999/xlink">
<g id="graph0" class="graph" transform="scale(1 1) rotate(0) translate(4 364)">
<title>Modules</title>
<polygon fill="white" stroke="transparent" points="-4,4 -4,-364 112,-364 112,4 -4,4"/>
<!-- safe_ice -->
<g id="node1" class="node">
<title>safe_ice</title>
<path fill="lightgreen" stroke="black" d="M78.5,-36C78.5,-36 29.5,-36 29.5,-36 23.5,-36 17.5,-30 17.5,-24 17.5,-24 17.5,-12 17.5,-12 17.5,-6 23.5,0 29.5,0 29.5,0 78.5,0 78.5,0 84.5,0 90.5,-6 90.5,-12 90.5,-12 90.5,-24 90.5,-24 90.5,-30 84.5,-36 78.5,-36"/>
<text text-anchor="middle" x="54" y="-14.3" font-family="Times,serif" font-size="14.00">safe_ice</text>
</g>
<!-- analysis -->
<g id="node2" class="node">
<title>analysis</title>
<path fill="lightgreen" stroke="black" d="M79,-90C79,-90 29,-90 29,-90 23,-90 17,-84 17,-78 17,-78 17,-66 17,-66 17,-60 23,-54 29,-54 29,-54 79,-54 79,-54 85,-54 91,-60 91,-66 91,-66 91,-78 91,-78 91,-84 85,-90 79,-90"/>
<text text-anchor="middle" x="54" y="-68.3" font-family="Times,serif" font-size="14.00">analysis</text>
</g>
<!-- core -->
<g id="node3" class="node">
<title>core</title>
<path fill="lightgreen" stroke="black" d="M69,-144C69,-144 39,-144 39,-144 33,-144 27,-138 27,-132 27,-132 27,-120 27,-120 27,-114 33,-108 39,-108 39,-108 69,-108 69,-108 75,-108 81,-114 81,-120 81,-120 81,-132 81,-132 81,-138 75,-144 69,-144"/>
<text text-anchor="middle" x="54" y="-122.3" font-family="Times,serif" font-size="14.00">core</text>
</g>
<!-- distributions -->
<g id="node4" class="node">
<title>distributions</title>
<path fill="lightgreen" stroke="black" d="M96,-198C96,-198 12,-198 12,-198 6,-198 0,-192 0,-186 0,-186 0,-174 0,-174 0,-168 6,-162 12,-162 12,-162 96,-162 96,-162 102,-162 108,-168 108,-174 108,-174 108,-186 108,-186 108,-192 102,-198 96,-198"/>
<text text-anchor="middle" x="54" y="-176.3" font-family="Times,serif" font-size="14.00">distributions</text>
</g>
<!-- optimization -->
<g id="node5" class="node">
<title>optimization</title>
<path fill="lightgreen" stroke="black" d="M95,-252C95,-252 13,-252 13,-252 7,-252 1,-246 1,-240 1,-240 1,-228 1,-228 1,-222 7,-216 13,-216 13,-216 95,-216 95,-216 101,-216 107,-222 107,-228 107,-228 107,-240 107,-240 107,-246 101,-252 95,-252"/>
<text text-anchor="middle" x="54" y="-230.3" font-family="Times,serif" font-size="14.00">optimization</text>
</g>
<!-- problems -->
<g id="node6" class="node">
<title>problems</title>
<path fill="lightgreen" stroke="black" d="M83.5,-306C83.5,-306 24.5,-306 24.5,-306 18.5,-306 12.5,-300 12.5,-294 12.5,-294 12.5,-282 12.5,-282 12.5,-276 18.5,-270 24.5,-270 24.5,-270 83.5,-270 83.5,-270 89.5,-270 95.5,-276 95.5,-282 95.5,-282 95.5,-294 95.5,-294 95.5,-300 89.5,-306 83.5,-306"/>
<text text-anchor="middle" x="54" y="-284.3" font-family="Times,serif" font-size="14.00">problems</text>
</g>
<!-- utils -->
<g id="node7" class="node">
<title>utils</title>
<path fill="lightgreen" stroke="black" d="M69,-360C69,-360 39,-360 39,-360 33,-360 27,-354 27,-348 27,-348 27,-336 27,-336 27,-330 33,-324 39,-324 39,-324 69,-324 69,-324 75,-324 81,-330 81,-336 81,-336 81,-348 81,-348 81,-354 75,-360 69,-360"/>
<text text-anchor="middle" x="54" y="-338.3" font-family="Times,serif" font-size="14.00">utils</text>
</g>
</g>
</svg>
